<?xml version="1.0" encoding="UTF-8" standalone="no"?>
<svg
   xmlns:dc="http://purl.org/dc/elements/1.1/"
   xmlns:cc="http://creativecommons.org/ns#"
   xmlns:rdf="http://www.w3.org/1999/02/22-rdf-syntax-ns#"
   xmlns:svg="http://www.w3.org/2000/svg"
   xmlns="http://www.w3.org/2000/svg"
   xmlns:sodipodi="http://sodipodi.sourceforge.net/DTD/sodipodi-0.dtd"
   xmlns:inkscape="http://www.inkscape.org/namespaces/inkscape"
   version="1.1"
   id="svg2"
   xml:space="preserve"
   width="292"
   height="154.66667"
   viewBox="0 0 292 154.66667"
   sodipodi:docname="ckt2.eps"><metadata
     id="metadata8"><rdf:RDF><cc:Work
         rdf:about=""><dc:format>image/svg+xml</dc:format><dc:type
           rdf:resource="http://purl.org/dc/dcmitype/StillImage" /></cc:Work></rdf:RDF></metadata><defs
     id="defs6" /><sodipodi:namedview
     pagecolor="#ffffff"
     bordercolor="#666666"
     borderopacity="1"
     objecttolerance="10"
     gridtolerance="10"
     guidetolerance="10"
     inkscape:pageopacity="0"
     inkscape:pageshadow="2"
     inkscape:window-width="640"
     inkscape:window-height="480"
     id="namedview4" /><g
     id="g10"
     inkscape:groupmode="layer"
     inkscape:label="ink_ext_XXXXXX"
     transform="matrix(1.3333333,0,0,-1.3333333,0,154.66667)"><g
       id="g12"
       transform="scale(0.1)"><path
         d="M 858.949,577.422 570.98,721.449 V 433.441 l 287.969,143.981"
         style="fill:none;stroke:#000000;stroke-width:7.2;stroke-linecap:round;stroke-linejoin:round;stroke-miterlimit:10;stroke-dasharray:none;stroke-opacity:1"
         id="path14" /><path
         d="M 570.98,649.41 H 498.949"
         style="fill:none;stroke:#000000;stroke-width:4.32;stroke-linecap:round;stroke-linejoin:round;stroke-miterlimit:10;stroke-dasharray:none;stroke-opacity:1"
         id="path16" /><path
         d="m 588.91,646.879 h 27.418"
         style="fill:none;stroke:#000000;stroke-width:4.32;stroke-linecap:round;stroke-linejoin:round;stroke-miterlimit:10;stroke-dasharray:none;stroke-opacity:1"
         id="path18" /><path
         d="M 602.621,633.121 V 660.59"
         style="fill:none;stroke:#000000;stroke-width:4.32;stroke-linecap:round;stroke-linejoin:round;stroke-miterlimit:10;stroke-dasharray:none;stroke-opacity:1"
         id="path20" /><path
         d="M 545.23,658.359 H 524.691"
         style="fill:none;stroke:#000000;stroke-width:4.32;stroke-linecap:round;stroke-linejoin:round;stroke-miterlimit:10;stroke-dasharray:none;stroke-opacity:1"
         id="path22" /><path
         d="m 534.961,658.359 v 35.981 l -3.441,-5.121 -3.43,-3.438 -3.399,-1.722"
         style="fill:none;stroke:#000000;stroke-width:4.32;stroke-linecap:round;stroke-linejoin:round;stroke-miterlimit:10;stroke-dasharray:none;stroke-opacity:1"
         id="path24" /><path
         d="M 570.98,505.43 H 498.949"
         style="fill:none;stroke:#000000;stroke-width:4.32;stroke-linecap:round;stroke-linejoin:round;stroke-miterlimit:10;stroke-dasharray:none;stroke-opacity:1"
         id="path26" /><path
         d="m 588.91,502.852 h 27.418"
         style="fill:none;stroke:#000000;stroke-width:4.32;stroke-linecap:round;stroke-linejoin:round;stroke-miterlimit:10;stroke-dasharray:none;stroke-opacity:1"
         id="path28" /><path
         d="m 524.691,546.91 1.719,1.719 3.391,1.723 h 8.597 l 3.442,-1.723 1.68,-1.719 1.71,-3.43 v -3.402 l -1.71,-5.156 -20.551,-20.582 h 22.261"
         style="fill:none;stroke:#000000;stroke-width:4.32;stroke-linecap:round;stroke-linejoin:round;stroke-miterlimit:10;stroke-dasharray:none;stroke-opacity:1"
         id="path30" /><path
         d="M 858.949,577.422 H 930.98"
         style="fill:none;stroke:#000000;stroke-width:4.32;stroke-linecap:round;stroke-linejoin:round;stroke-miterlimit:10;stroke-dasharray:none;stroke-opacity:1"
         id="path32" /><path
         d="m 882.969,622.34 h 22.261 l -11.992,-13.711 h 5.16 l 3.442,-1.719 1.68,-1.711 1.71,-3.437 v -8.563 l -1.71,-3.429 -1.68,-1.719 -3.442,-1.723 H 888.09 l -3.399,1.723 -1.722,1.719"
         style="fill:none;stroke:#000000;stroke-width:4.32;stroke-linecap:round;stroke-linejoin:round;stroke-miterlimit:10;stroke-dasharray:none;stroke-opacity:1"
         id="path34" /><path
         d="M 642.969,685.43 V 793.441"
         style="fill:none;stroke:#000000;stroke-width:4.32;stroke-linecap:round;stroke-linejoin:round;stroke-miterlimit:10;stroke-dasharray:none;stroke-opacity:1"
         id="path36" /><path
         d="m 623.238,604.059 36.024,11.992 -36.024,12.039"
         style="fill:none;stroke:#000000;stroke-width:4.32;stroke-linecap:round;stroke-linejoin:round;stroke-miterlimit:10;stroke-dasharray:none;stroke-opacity:1"
         id="path38" /><path
         d="M 645.551,640.078 V 667.5"
         style="fill:none;stroke:#000000;stroke-width:4.32;stroke-linecap:round;stroke-linejoin:round;stroke-miterlimit:10;stroke-dasharray:none;stroke-opacity:1"
         id="path40" /><path
         d="M 659.262,653.789 H 631.84"
         style="fill:none;stroke:#000000;stroke-width:4.32;stroke-linecap:round;stroke-linejoin:round;stroke-miterlimit:10;stroke-dasharray:none;stroke-opacity:1"
         id="path42" /><path
         d="m 610.039,746.289 h 24.02"
         style="fill:none;stroke:#000000;stroke-width:4.32;stroke-linecap:round;stroke-linejoin:round;stroke-miterlimit:10;stroke-dasharray:none;stroke-opacity:1"
         id="path44" /><path
         d="m 596.328,737.73 25.703,-8.589 v 22.308"
         style="fill:none;stroke:#000000;stroke-width:4.32;stroke-linecap:round;stroke-linejoin:round;stroke-miterlimit:10;stroke-dasharray:none;stroke-opacity:1"
         id="path46" /><path
         d="M 642.969,469.41 V 361.449"
         style="fill:none;stroke:#000000;stroke-width:4.32;stroke-linecap:round;stroke-linejoin:round;stroke-miterlimit:10;stroke-dasharray:none;stroke-opacity:1"
         id="path48" /><path
         d="m 623.238,482.23 36.024,11.989 -36.024,11.992"
         style="fill:none;stroke:#000000;stroke-width:4.32;stroke-linecap:round;stroke-linejoin:round;stroke-miterlimit:10;stroke-dasharray:none;stroke-opacity:1"
         id="path50" /><path
         d="M 645.551,518.199 V 545.66"
         style="fill:none;stroke:#000000;stroke-width:4.32;stroke-linecap:round;stroke-linejoin:round;stroke-miterlimit:10;stroke-dasharray:none;stroke-opacity:1"
         id="path52" /><path
         d="m 598.051,424.02 v -17.141 l 17.148,-1.719 -1.719,1.719 -1.718,3.391 v 8.601 l 1.718,3.43 1.719,1.719 3.43,1.679 h 8.562 l 3.43,-1.679 1.719,-1.719 1.719,-3.43 v -8.601 l -1.719,-3.391 -1.719,-1.719"
         style="fill:none;stroke:#000000;stroke-width:4.32;stroke-linecap:round;stroke-linejoin:round;stroke-miterlimit:10;stroke-dasharray:none;stroke-opacity:1"
         id="path54" /><path
         d="m 596.328,589.922 h 6.871 l 3.403,-1.684 3.437,-3.437 1.723,-6.832 v -12.028 l -1.723,-6.839 -3.437,-3.442 -3.403,-1.711 h -6.871 l -3.437,1.711 -3.442,3.442 -1.679,6.839 v 12.028 l 1.679,6.832 3.442,3.437 3.437,1.684"
         style="fill:none;stroke:#000000;stroke-width:4.32;stroke-linecap:round;stroke-linejoin:round;stroke-miterlimit:10;stroke-dasharray:none;stroke-opacity:1"
         id="path56" /><path
         d="m 627.191,553.949 v 35.973 h 13.707 l 3.442,-1.684 1.711,-1.718 1.719,-3.43 v -5.121 l -1.719,-3.481 -1.711,-1.679 -3.442,-1.719 h -13.707"
         style="fill:none;stroke:#000000;stroke-width:4.32;stroke-linecap:round;stroke-linejoin:round;stroke-miterlimit:10;stroke-dasharray:none;stroke-opacity:1"
         id="path58" /><path
         d="m 661.48,564.219 h 17.11"
         style="fill:none;stroke:#000000;stroke-width:4.32;stroke-linecap:round;stroke-linejoin:round;stroke-miterlimit:10;stroke-dasharray:none;stroke-opacity:1"
         id="path60" /><path
         d="m 658.051,553.949 11.988,35.973 11.992,-35.973"
         style="fill:none;stroke:#000000;stroke-width:4.32;stroke-linecap:round;stroke-linejoin:round;stroke-miterlimit:10;stroke-dasharray:none;stroke-opacity:1"
         id="path62" /><path
         d="m 694.02,553.949 v 35.973 l 12.031,-25.703 12,25.703 v -35.973"
         style="fill:none;stroke:#000000;stroke-width:4.32;stroke-linecap:round;stroke-linejoin:round;stroke-miterlimit:10;stroke-dasharray:none;stroke-opacity:1"
         id="path64" /><path
         d="m 735.199,553.949 v 35.973 h 13.711 l 3.43,-1.684 1.68,-1.718 1.718,-3.43 v -5.121 l -1.718,-3.481 -1.68,-1.679 -3.43,-1.719 h -13.711"
         style="fill:none;stroke:#000000;stroke-width:4.32;stroke-linecap:round;stroke-linejoin:round;stroke-miterlimit:10;stroke-dasharray:none;stroke-opacity:1"
         id="path66" /><path
         d="m 930.98,203.039 h 143.98 v 57.582 H 930.98 Z"
         style="fill:none;stroke:#000000;stroke-width:7.2;stroke-linecap:round;stroke-linejoin:round;stroke-miterlimit:10;stroke-dasharray:none;stroke-opacity:1"
         id="path68" /><path
         d="m 1074.96,231.84 h 36.02"
         style="fill:none;stroke:#000000;stroke-width:4.32;stroke-linecap:round;stroke-linejoin:round;stroke-miterlimit:10;stroke-dasharray:none;stroke-opacity:1"
         id="path70" /><path
         d="M 930.98,231.84 H 894.961"
         style="fill:none;stroke:#000000;stroke-width:4.32;stroke-linecap:round;stroke-linejoin:round;stroke-miterlimit:10;stroke-dasharray:none;stroke-opacity:1"
         id="path72" /><path
         d="m 999.531,215.551 -11.992,17.148"
         style="fill:none;stroke:#000000;stroke-width:4.32;stroke-linecap:round;stroke-linejoin:round;stroke-miterlimit:10;stroke-dasharray:none;stroke-opacity:1"
         id="path74" /><path
         d="m 978.949,215.551 v 35.969 h 13.711 l 3.43,-1.68 1.719,-1.719 1.722,-3.43 v -5.16 l -1.722,-3.402 -1.719,-1.719 -3.43,-1.711 h -13.711"
         style="fill:none;stroke:#000000;stroke-width:4.32;stroke-linecap:round;stroke-linejoin:round;stroke-miterlimit:10;stroke-dasharray:none;stroke-opacity:1"
         id="path76" /><path
         d="m 1013.24,217.27 3.44,-1.719 h 6.84 l 3.43,1.719 1.72,3.429 v 1.68 l -1.72,3.441 -3.43,1.719 h -5.12 l -3.44,1.723 -1.72,3.437 v 1.711 l 1.72,3.399 3.44,1.722 h 5.12 l 3.43,-1.722"
         style="fill:none;stroke:#000000;stroke-width:4.32;stroke-linecap:round;stroke-linejoin:round;stroke-miterlimit:10;stroke-dasharray:none;stroke-opacity:1"
         id="path78" /><path
         d="m 1377.34,822.219 h 144.02 v 57.6211 h -144.02 z"
         style="fill:none;stroke:#000000;stroke-width:7.2;stroke-linecap:round;stroke-linejoin:round;stroke-miterlimit:10;stroke-dasharray:none;stroke-opacity:1"
         id="path80" /><path
         d="m 1377.34,851.02 h -35.97"
         style="fill:none;stroke:#000000;stroke-width:4.32;stroke-linecap:round;stroke-linejoin:round;stroke-miterlimit:10;stroke-dasharray:none;stroke-opacity:1"
         id="path82" /><path
         d="m 1521.37,851.02 h 35.97"
         style="fill:none;stroke:#000000;stroke-width:4.32;stroke-linecap:round;stroke-linejoin:round;stroke-miterlimit:10;stroke-dasharray:none;stroke-opacity:1"
         id="path84" /><path
         d="m 1445.94,834.77 -11.99,17.109"
         style="fill:none;stroke:#000000;stroke-width:4.32;stroke-linecap:round;stroke-linejoin:round;stroke-miterlimit:10;stroke-dasharray:none;stroke-opacity:1"
         id="path86" /><path
         d="m 1425.35,834.77 v 35.968 h 13.71 l 3.44,-1.718 1.72,-1.719 1.72,-3.391 v -5.16 l -1.72,-3.441 -1.72,-1.719 -3.44,-1.711 h -13.71"
         style="fill:none;stroke:#000000;stroke-width:4.32;stroke-linecap:round;stroke-linejoin:round;stroke-miterlimit:10;stroke-dasharray:none;stroke-opacity:1"
         id="path88" /><path
         d="m 1459.65,836.449 3.44,-1.679 h 6.83 l 3.44,1.679 1.72,3.43 v 1.723 l -1.72,3.437 -3.44,1.723 h -5.15 l -3.4,1.718 -1.72,3.399 v 1.711 l 1.72,3.441 3.4,1.719 h 5.15 l 3.44,-1.719"
         style="fill:none;stroke:#000000;stroke-width:4.32;stroke-linecap:round;stroke-linejoin:round;stroke-miterlimit:10;stroke-dasharray:none;stroke-opacity:1"
         id="path90" /><path
         d="m 1370.16,383.051 288,143.98 -288,143.989 V 383.051"
         style="fill:none;stroke:#000000;stroke-width:7.2;stroke-linecap:round;stroke-linejoin:round;stroke-miterlimit:10;stroke-dasharray:none;stroke-opacity:1"
         id="path92" /><path
         d="m 1658.16,527.031 h 72"
         style="fill:none;stroke:#000000;stroke-width:4.32;stroke-linecap:round;stroke-linejoin:round;stroke-miterlimit:10;stroke-dasharray:none;stroke-opacity:1"
         id="path94" /><path
         d="m 1704.45,535.941 h -20.58"
         style="fill:none;stroke:#000000;stroke-width:4.32;stroke-linecap:round;stroke-linejoin:round;stroke-miterlimit:10;stroke-dasharray:none;stroke-opacity:1"
         id="path96" /><path
         d="m 1694.14,535.941 v 36.008 l -3.4,-5.148 -3.44,-3.403 -3.43,-1.757"
         style="fill:none;stroke:#000000;stroke-width:4.32;stroke-linecap:round;stroke-linejoin:round;stroke-miterlimit:10;stroke-dasharray:none;stroke-opacity:1"
         id="path98" /><path
         d="m 1370.16,599.02 h -72"
         style="fill:none;stroke:#000000;stroke-width:4.32;stroke-linecap:round;stroke-linejoin:round;stroke-miterlimit:10;stroke-dasharray:none;stroke-opacity:1"
         id="path100" /><path
         d="m 1395.27,596.449 h 27.46"
         style="fill:none;stroke:#000000;stroke-width:4.32;stroke-linecap:round;stroke-linejoin:round;stroke-miterlimit:10;stroke-dasharray:none;stroke-opacity:1"
         id="path102" /><path
         d="m 1323.87,640.512 1.72,1.718 3.43,1.719 h 8.56 l 3.44,-1.719 1.71,-1.718 1.72,-3.403 v -3.437 l -1.72,-5.152 -20.58,-20.59 h 22.3"
         style="fill:none;stroke:#000000;stroke-width:4.32;stroke-linecap:round;stroke-linejoin:round;stroke-miterlimit:10;stroke-dasharray:none;stroke-opacity:1"
         id="path104" /><path
         d="m 1370.16,455.039 h -72"
         style="fill:none;stroke:#000000;stroke-width:4.32;stroke-linecap:round;stroke-linejoin:round;stroke-miterlimit:10;stroke-dasharray:none;stroke-opacity:1"
         id="path106" /><path
         d="m 1395.27,452.461 h 27.46"
         style="fill:none;stroke:#000000;stroke-width:4.32;stroke-linecap:round;stroke-linejoin:round;stroke-miterlimit:10;stroke-dasharray:none;stroke-opacity:1"
         id="path108" /><path
         d="m 1408.98,438.75 v 27.422"
         style="fill:none;stroke:#000000;stroke-width:4.32;stroke-linecap:round;stroke-linejoin:round;stroke-miterlimit:10;stroke-dasharray:none;stroke-opacity:1"
         id="path110" /><path
         d="m 1322.15,499.922 h 22.3 l -11.99,-13.711 h 5.12 l 3.44,-1.723 1.71,-1.679 1.72,-3.43 v -8.559 l -1.72,-3.441 -1.71,-1.719 -3.44,-1.711 h -10.28 l -3.43,1.711 -1.72,1.719"
         style="fill:none;stroke:#000000;stroke-width:4.32;stroke-linecap:round;stroke-linejoin:round;stroke-miterlimit:10;stroke-dasharray:none;stroke-opacity:1"
         id="path112" /><path
         d="m 1403.44,553.949 h 6.83 l 3.44,-1.719 3.44,-3.441 1.72,-6.84 v -11.988 l -1.72,-6.871 -3.44,-3.399 -3.44,-1.722 h -6.83 l -3.44,1.722 -3.44,3.399 -1.72,6.871 v 11.988 l 1.72,6.84 3.44,3.441 3.44,1.719"
         style="fill:none;stroke:#000000;stroke-width:4.32;stroke-linecap:round;stroke-linejoin:round;stroke-miterlimit:10;stroke-dasharray:none;stroke-opacity:1"
         id="path114" /><path
         d="M 1434.3,541.949 V 505.941"
         style="fill:none;stroke:#000000;stroke-width:4.32;stroke-linecap:round;stroke-linejoin:round;stroke-miterlimit:10;stroke-dasharray:none;stroke-opacity:1"
         id="path116" /><path
         d="m 1434.3,540.23 3.4,1.719 h 6.87 l 3.4,-1.719 1.72,-1.71 1.72,-3.399 v -10.32 l -1.72,-3.43 -1.72,-1.68 -3.4,-1.722 h -6.87 l -3.4,1.722"
         style="fill:none;stroke:#000000;stroke-width:4.32;stroke-linecap:round;stroke-linejoin:round;stroke-miterlimit:10;stroke-dasharray:none;stroke-opacity:1"
         id="path118" /><path
         d="m 1492.58,528.238 h 17.11"
         style="fill:none;stroke:#000000;stroke-width:4.32;stroke-linecap:round;stroke-linejoin:round;stroke-miterlimit:10;stroke-dasharray:none;stroke-opacity:1"
         id="path120" /><path
         d="m 1489.14,517.969 11.99,35.98 11.99,-35.98"
         style="fill:none;stroke:#000000;stroke-width:4.32;stroke-linecap:round;stroke-linejoin:round;stroke-miterlimit:10;stroke-dasharray:none;stroke-opacity:1"
         id="path122" /><path
         d="m 1525.12,517.969 v 23.98"
         style="fill:none;stroke:#000000;stroke-width:4.32;stroke-linecap:round;stroke-linejoin:round;stroke-miterlimit:10;stroke-dasharray:none;stroke-opacity:1"
         id="path124" /><path
         d="m 1525.12,538.52 1.72,1.71 3.43,1.719 h 5.12 l 3.44,-1.719 1.72,-3.429 v -18.832"
         style="fill:none;stroke:#000000;stroke-width:4.32;stroke-linecap:round;stroke-linejoin:round;stroke-miterlimit:10;stroke-dasharray:none;stroke-opacity:1"
         id="path126" /><path
         d="m 1540.55,536.801 1.72,3.429 3.43,1.719 h 5.16 l 3.4,-1.719 1.72,-3.429 v -18.832"
         style="fill:none;stroke:#000000;stroke-width:4.32;stroke-linecap:round;stroke-linejoin:round;stroke-miterlimit:10;stroke-dasharray:none;stroke-opacity:1"
         id="path128" /><path
         d="M 1573.12,541.949 V 505.941"
         style="fill:none;stroke:#000000;stroke-width:4.32;stroke-linecap:round;stroke-linejoin:round;stroke-miterlimit:10;stroke-dasharray:none;stroke-opacity:1"
         id="path130" /><path
         d="m 1573.12,540.23 3.44,1.719 h 6.88 l 3.4,-1.719 1.71,-1.71 1.72,-3.399 v -10.32 l -1.72,-3.43 -1.71,-1.68 -3.4,-1.722 h -6.88 l -3.44,1.722"
         style="fill:none;stroke:#000000;stroke-width:4.32;stroke-linecap:round;stroke-linejoin:round;stroke-miterlimit:10;stroke-dasharray:none;stroke-opacity:1"
         id="path132" /><path
         d="m 614.141,930.238 h 57.6211 v 143.98 H 614.141 Z"
         style="fill:none;stroke:#000000;stroke-width:7.2;stroke-linecap:round;stroke-linejoin:round;stroke-miterlimit:10;stroke-dasharray:none;stroke-opacity:1"
         id="path134" /><path
         d="M 642.969,930.23 V 894.219"
         style="fill:none;stroke:#000000;stroke-width:4.32;stroke-linecap:round;stroke-linejoin:round;stroke-miterlimit:10;stroke-dasharray:none;stroke-opacity:1"
         id="path136" /><path
         d="m 642.969,1074.22 v 36.01"
         style="fill:none;stroke:#000000;stroke-width:4.32;stroke-linecap:round;stroke-linejoin:round;stroke-miterlimit:10;stroke-dasharray:none;stroke-opacity:1"
         id="path138" /><path
         d="m 659.262,1013.4 -17.153,-12.03"
         style="fill:none;stroke:#000000;stroke-width:4.32;stroke-linecap:round;stroke-linejoin:round;stroke-miterlimit:10;stroke-dasharray:none;stroke-opacity:1"
         id="path140" /><path
         d="m 659.262,992.809 h -36.024 v 13.711 l 1.723,3.44 1.719,1.68 3.441,1.76 h 5.109 l 3.442,-1.76 1.719,-1.68 1.718,-3.44 v -13.711"
         style="fill:none;stroke:#000000;stroke-width:4.32;stroke-linecap:round;stroke-linejoin:round;stroke-miterlimit:10;stroke-dasharray:none;stroke-opacity:1"
         id="path142" /><path
         d="m 614.141,51.8398 h 57.6211 v 143.98 H 614.141 Z"
         style="fill:none;stroke:#000000;stroke-width:7.2;stroke-linecap:round;stroke-linejoin:round;stroke-miterlimit:10;stroke-dasharray:none;stroke-opacity:1"
         id="path144" /><path
         d="M 642.969,51.8398 V 15.8203"
         style="fill:none;stroke:#000000;stroke-width:4.32;stroke-linecap:round;stroke-linejoin:round;stroke-miterlimit:10;stroke-dasharray:none;stroke-opacity:1"
         id="path146" /><path
         d="m 642.969,195.82 v 36.02"
         style="fill:none;stroke:#000000;stroke-width:4.32;stroke-linecap:round;stroke-linejoin:round;stroke-miterlimit:10;stroke-dasharray:none;stroke-opacity:1"
         id="path148" /><path
         d="M 659.262,134.961 642.109,122.969"
         style="fill:none;stroke:#000000;stroke-width:4.32;stroke-linecap:round;stroke-linejoin:round;stroke-miterlimit:10;stroke-dasharray:none;stroke-opacity:1"
         id="path150" /><path
         d="m 659.262,114.41 h -36.024 v 13.711 l 1.723,3.438 1.719,1.679 3.441,1.723 h 5.109 l 3.442,-1.723 1.719,-1.679 1.718,-3.438 V 114.41"
         style="fill:none;stroke:#000000;stroke-width:4.32;stroke-linecap:round;stroke-linejoin:round;stroke-miterlimit:10;stroke-dasharray:none;stroke-opacity:1"
         id="path152" /><path
         d="m 498.949,145.43 v -36.02 h 36.012 L 498.949,73.4414 462.969,109.41 h 35.98"
         style="fill:none;stroke:#000000;stroke-width:4.32;stroke-linecap:round;stroke-linejoin:round;stroke-miterlimit:10;stroke-dasharray:none;stroke-opacity:1"
         id="path154" /><path
         d="m 470.16,181.449 h 57.6211 v 143.98 H 470.16 Z"
         style="fill:none;stroke:#000000;stroke-width:7.2;stroke-linecap:round;stroke-linejoin:round;stroke-miterlimit:10;stroke-dasharray:none;stroke-opacity:1"
         id="path156" /><path
         d="M 498.949,181.449 V 145.43"
         style="fill:none;stroke:#000000;stroke-width:4.32;stroke-linecap:round;stroke-linejoin:round;stroke-miterlimit:10;stroke-dasharray:none;stroke-opacity:1"
         id="path158" /><path
         d="m 498.949,325.43 v 36.019"
         style="fill:none;stroke:#000000;stroke-width:4.32;stroke-linecap:round;stroke-linejoin:round;stroke-miterlimit:10;stroke-dasharray:none;stroke-opacity:1"
         id="path160" /><path
         d="M 515.23,250 498.09,238.012"
         style="fill:none;stroke:#000000;stroke-width:4.32;stroke-linecap:round;stroke-linejoin:round;stroke-miterlimit:10;stroke-dasharray:none;stroke-opacity:1"
         id="path162" /><path
         d="m 515.23,229.41 h -35.968 v 13.75 l 1.718,3.399 1.68,1.722 3.43,1.719 h 5.16 l 3.441,-1.719 1.68,-1.722 1.719,-3.399 v -13.75"
         style="fill:none;stroke:#000000;stroke-width:4.32;stroke-linecap:round;stroke-linejoin:round;stroke-miterlimit:10;stroke-dasharray:none;stroke-opacity:1"
         id="path164" /><path
         d="m 515.23,261.988 -23.98,18.871"
         style="fill:none;stroke:#000000;stroke-width:4.32;stroke-linecap:round;stroke-linejoin:round;stroke-miterlimit:10;stroke-dasharray:none;stroke-opacity:1"
         id="path166" /><path
         d="m 491.25,261.988 23.98,18.871"
         style="fill:none;stroke:#000000;stroke-width:4.32;stroke-linecap:round;stroke-linejoin:round;stroke-miterlimit:10;stroke-dasharray:none;stroke-opacity:1"
         id="path168" /><path
         d="m 952.578,865.43 h 143.98 v 57.6211 h -143.98 z"
         style="fill:none;stroke:#000000;stroke-width:7.2;stroke-linecap:round;stroke-linejoin:round;stroke-miterlimit:10;stroke-dasharray:none;stroke-opacity:1"
         id="path170" /><path
         d="m 1096.56,894.219 h 36.02"
         style="fill:none;stroke:#000000;stroke-width:4.32;stroke-linecap:round;stroke-linejoin:round;stroke-miterlimit:10;stroke-dasharray:none;stroke-opacity:1"
         id="path172" /><path
         d="M 952.578,894.219 H 916.559"
         style="fill:none;stroke:#000000;stroke-width:4.32;stroke-linecap:round;stroke-linejoin:round;stroke-miterlimit:10;stroke-dasharray:none;stroke-opacity:1"
         id="path174" /><path
         d="m 1021.13,877.93 -11.99,17.148"
         style="fill:none;stroke:#000000;stroke-width:4.32;stroke-linecap:round;stroke-linejoin:round;stroke-miterlimit:10;stroke-dasharray:none;stroke-opacity:1"
         id="path176" /><path
         d="m 1000.55,877.93 v 36.019 h 13.71 l 3.44,-1.719 1.71,-1.718 1.72,-3.403 v -5.16 l -1.72,-3.429 -1.71,-1.719 -3.44,-1.723 h -13.71"
         style="fill:none;stroke:#000000;stroke-width:4.32;stroke-linecap:round;stroke-linejoin:round;stroke-miterlimit:10;stroke-dasharray:none;stroke-opacity:1"
         id="path178" /><path
         d="m 1034.84,879.648 3.44,-1.718 h 6.84 l 3.43,1.718 1.72,3.442 v 1.711 l -1.72,3.437 -3.43,1.723 H 1040 l -3.44,1.68 -1.72,3.437 v 1.723 l 1.72,3.429 3.44,1.719 h 5.12 l 3.43,-1.719"
         style="fill:none;stroke:#000000;stroke-width:4.32;stroke-linecap:round;stroke-linejoin:round;stroke-miterlimit:10;stroke-dasharray:none;stroke-opacity:1"
         id="path180" /><path
         d="m 706.129,1157.85 12.031,-36.01 12,36.01"
         style="fill:none;stroke:#000000;stroke-width:4.32;stroke-linecap:round;stroke-linejoin:round;stroke-miterlimit:10;stroke-dasharray:none;stroke-opacity:1"
         id="path182" /><path
         d="M 742.148,1135.55 H 769.57"
         style="fill:none;stroke:#000000;stroke-width:4.32;stroke-linecap:round;stroke-linejoin:round;stroke-miterlimit:10;stroke-dasharray:none;stroke-opacity:1"
         id="path184" /><path
         d="m 755.859,1121.84 v 27.46"
         style="fill:none;stroke:#000000;stroke-width:4.32;stroke-linecap:round;stroke-linejoin:round;stroke-miterlimit:10;stroke-dasharray:none;stroke-opacity:1"
         id="path186" /><path
         d="M 691.762,63.4414 703.75,27.4219 715.738,63.4414"
         style="fill:none;stroke:#000000;stroke-width:4.32;stroke-linecap:round;stroke-linejoin:round;stroke-miterlimit:10;stroke-dasharray:none;stroke-opacity:1"
         id="path188" /><path
         d="m 727.73,41.1719 h 27.43"
         style="fill:none;stroke:#000000;stroke-width:4.32;stroke-linecap:round;stroke-linejoin:round;stroke-miterlimit:10;stroke-dasharray:none;stroke-opacity:1"
         id="path190" /><path
         d="m 220.781,711.449 12.028,-36.019 11.992,36.019"
         style="fill:none;stroke:#000000;stroke-width:4.32;stroke-linecap:round;stroke-linejoin:round;stroke-miterlimit:10;stroke-dasharray:none;stroke-opacity:1"
         id="path192" /><path
         d="m 255.078,671.52 v 19.179"
         style="fill:none;stroke:#000000;stroke-width:4.32;stroke-linecap:round;stroke-linejoin:round;stroke-miterlimit:10;stroke-dasharray:none;stroke-opacity:1"
         id="path194" /><path
         d="m 255.078,700.309 -1.367,-1.36 1.367,-1.371 1.371,1.371 -1.371,1.36 v -2.731"
         style="fill:none;stroke:#000000;stroke-width:4.32;stroke-linecap:round;stroke-linejoin:round;stroke-miterlimit:10;stroke-dasharray:none;stroke-opacity:1"
         id="path196" /><path
         d="M 268.789,690.699 V 671.52"
         style="fill:none;stroke:#000000;stroke-width:4.32;stroke-linecap:round;stroke-linejoin:round;stroke-miterlimit:10;stroke-dasharray:none;stroke-opacity:1"
         id="path198" /><path
         d="m 268.789,687.969 1.371,1.371 2.77,1.359 h 4.101 l 2.739,-1.359 1.359,-2.738 V 671.52"
         style="fill:none;stroke:#000000;stroke-width:4.32;stroke-linecap:round;stroke-linejoin:round;stroke-miterlimit:10;stroke-dasharray:none;stroke-opacity:1"
         id="path200" /><path
         d="m 1895.31,581.84 11.99,-35.981 12,35.981"
         style="fill:none;stroke:#000000;stroke-width:4.32;stroke-linecap:round;stroke-linejoin:round;stroke-miterlimit:10;stroke-dasharray:none;stroke-opacity:1"
         id="path202" /><path
         d="m 1933.71,541.91 -2.73,1.371 -1.37,1.367 -1.37,2.731 v 8.242 l 1.37,2.738 1.37,1.371 2.73,1.36 h 4.1 l 2.78,-1.36 1.36,-1.371 1.37,-2.738 v -8.242 l -1.37,-2.731 -1.36,-1.367 -2.78,-1.371 h -4.1"
         style="fill:none;stroke:#000000;stroke-width:4.32;stroke-linecap:round;stroke-linejoin:round;stroke-miterlimit:10;stroke-dasharray:none;stroke-opacity:1"
         id="path204" /><path
         d="M 1968.01,561.09 V 541.91"
         style="fill:none;stroke:#000000;stroke-width:4.32;stroke-linecap:round;stroke-linejoin:round;stroke-miterlimit:10;stroke-dasharray:none;stroke-opacity:1"
         id="path206" /><path
         d="m 1955.66,561.09 v -15.07 l 1.37,-2.739 2.74,-1.371 h 4.14 l 2.73,1.371 1.37,1.367"
         style="fill:none;stroke:#000000;stroke-width:4.32;stroke-linecap:round;stroke-linejoin:round;stroke-miterlimit:10;stroke-dasharray:none;stroke-opacity:1"
         id="path208" /><path
         d="m 1977.62,561.09 h 10.93"
         style="fill:none;stroke:#000000;stroke-width:4.32;stroke-linecap:round;stroke-linejoin:round;stroke-miterlimit:10;stroke-dasharray:none;stroke-opacity:1"
         id="path210" /><path
         d="M 1981.72,570.699 V 546.02 l 1.37,-2.739 2.73,-1.371 h 2.73"
         style="fill:none;stroke:#000000;stroke-width:4.32;stroke-linecap:round;stroke-linejoin:round;stroke-miterlimit:10;stroke-dasharray:none;stroke-opacity:1"
         id="path212" /><path
         d="m 2027.3,564.73 h 27.43"
         style="fill:none;stroke:#000000;stroke-width:4.32;stroke-linecap:round;stroke-linejoin:round;stroke-miterlimit:10;stroke-dasharray:none;stroke-opacity:1"
         id="path214" /><path
         d="M 2054.73,554.41 H 2027.3"
         style="fill:none;stroke:#000000;stroke-width:4.32;stroke-linecap:round;stroke-linejoin:round;stroke-miterlimit:10;stroke-dasharray:none;stroke-opacity:1"
         id="path216" /><path
         d="m 2094.18,581.84 11.99,-35.981 11.99,35.981"
         style="fill:none;stroke:#000000;stroke-width:4.32;stroke-linecap:round;stroke-linejoin:round;stroke-miterlimit:10;stroke-dasharray:none;stroke-opacity:1"
         id="path218" /><path
         d="m 2128.48,541.91 v 19.18"
         style="fill:none;stroke:#000000;stroke-width:4.32;stroke-linecap:round;stroke-linejoin:round;stroke-miterlimit:10;stroke-dasharray:none;stroke-opacity:1"
         id="path220" /><path
         d="m 2128.48,570.699 -1.41,-1.359 1.41,-1.371 1.32,1.371 -1.32,1.359 v -2.73"
         style="fill:none;stroke:#000000;stroke-width:4.32;stroke-linecap:round;stroke-linejoin:round;stroke-miterlimit:10;stroke-dasharray:none;stroke-opacity:1"
         id="path222" /><path
         d="M 2142.19,561.09 V 541.91"
         style="fill:none;stroke:#000000;stroke-width:4.32;stroke-linecap:round;stroke-linejoin:round;stroke-miterlimit:10;stroke-dasharray:none;stroke-opacity:1"
         id="path224" /><path
         d="m 2142.19,558.359 1.36,1.371 2.74,1.36 h 4.1 l 2.73,-1.36 1.41,-2.742 V 541.91"
         style="fill:none;stroke:#000000;stroke-width:4.32;stroke-linecap:round;stroke-linejoin:round;stroke-miterlimit:10;stroke-dasharray:none;stroke-opacity:1"
         id="path226" /><path
         d="m 2166.88,582.34 1.36,1.371 2.74,1.41 h 6.83 l 2.78,-1.41 1.36,-1.371 1.37,-2.731 v -2.73 l -1.37,-4.109 -16.44,-16.442 h 17.81"
         style="fill:none;stroke:#000000;stroke-width:4.32;stroke-linecap:round;stroke-linejoin:round;stroke-miterlimit:10;stroke-dasharray:none;stroke-opacity:1"
         id="path228" /><path
         d="m 1197.34,455.039 h 100.82"
         style="fill:none;stroke:#000000;stroke-width:4.32;stroke-linecap:round;stroke-linejoin:round;stroke-miterlimit:10;stroke-dasharray:none;stroke-opacity:1"
         id="path230" /><path
         d="M 930.98,390.23 V 577.422"
         style="fill:none;stroke:#000000;stroke-width:4.32;stroke-linecap:round;stroke-linejoin:round;stroke-miterlimit:10;stroke-dasharray:none;stroke-opacity:1"
         id="path232" /><path
         d="M 1197.34,231.84 V 455.039"
         style="fill:none;stroke:#000000;stroke-width:4.32;stroke-linecap:round;stroke-linejoin:round;stroke-miterlimit:10;stroke-dasharray:none;stroke-opacity:1"
         id="path234" /><path
         d="m 1110.98,231.84 h 86.36"
         style="fill:none;stroke:#000000;stroke-width:4.32;stroke-linecap:round;stroke-linejoin:round;stroke-miterlimit:10;stroke-dasharray:none;stroke-opacity:1"
         id="path236" /><path
         d="m 592.578,1110.23 h 50.391"
         style="fill:none;stroke:#000000;stroke-width:4.32;stroke-linecap:round;stroke-linejoin:round;stroke-miterlimit:10;stroke-dasharray:none;stroke-opacity:1"
         id="path238" /><path
         d="M 498.949,390.23 V 361.449"
         style="fill:none;stroke:#000000;stroke-width:4.32;stroke-linecap:round;stroke-linejoin:round;stroke-miterlimit:10;stroke-dasharray:none;stroke-opacity:1"
         id="path240" /><path
         d="M 498.949,505.43 V 390.23"
         style="fill:none;stroke:#000000;stroke-width:4.32;stroke-linecap:round;stroke-linejoin:round;stroke-miterlimit:10;stroke-dasharray:none;stroke-opacity:1"
         id="path242" /><path
         d="M 642.969,361.449 V 231.84"
         style="fill:none;stroke:#000000;stroke-width:4.32;stroke-linecap:round;stroke-linejoin:round;stroke-miterlimit:10;stroke-dasharray:none;stroke-opacity:1"
         id="path244" /><path
         d="m 642.969,15.8203 h 43.203"
         style="fill:none;stroke:#000000;stroke-width:4.32;stroke-linecap:round;stroke-linejoin:round;stroke-miterlimit:10;stroke-dasharray:none;stroke-opacity:1"
         id="path246" /><path
         d="M 498.949,649.41 H 2.14844"
         style="fill:none;stroke:#000000;stroke-width:4.32;stroke-linecap:round;stroke-linejoin:round;stroke-miterlimit:10;stroke-dasharray:none;stroke-opacity:1"
         id="path248" /><path
         d="m 606.949,15.8203 h 36.02"
         style="fill:none;stroke:#000000;stroke-width:4.32;stroke-linecap:round;stroke-linejoin:round;stroke-miterlimit:10;stroke-dasharray:none;stroke-opacity:1"
         id="path250" /><path
         d="m 1298.16,851.02 v -252"
         style="fill:none;stroke:#000000;stroke-width:4.32;stroke-linecap:round;stroke-linejoin:round;stroke-miterlimit:10;stroke-dasharray:none;stroke-opacity:1"
         id="path252" /><path
         d="M 642.969,231.84 H 894.961"
         style="fill:none;stroke:#000000;stroke-width:4.32;stroke-linecap:round;stroke-linejoin:round;stroke-miterlimit:10;stroke-dasharray:none;stroke-opacity:1"
         id="path254" /><path
         d="M 1197.34,894.219 V 599.02"
         style="fill:none;stroke:#000000;stroke-width:4.32;stroke-linecap:round;stroke-linejoin:round;stroke-miterlimit:10;stroke-dasharray:none;stroke-opacity:1"
         id="path256" /><path
         d="m 1132.58,894.219 h 64.76"
         style="fill:none;stroke:#000000;stroke-width:4.32;stroke-linecap:round;stroke-linejoin:round;stroke-miterlimit:10;stroke-dasharray:none;stroke-opacity:1"
         id="path258" /><path
         d="m 1730.16,527.031 h 273.59"
         style="fill:none;stroke:#000000;stroke-width:4.32;stroke-linecap:round;stroke-linejoin:round;stroke-miterlimit:10;stroke-dasharray:none;stroke-opacity:1"
         id="path260" /><path
         d="m 1557.34,851.02 h 172.82"
         style="fill:none;stroke:#000000;stroke-width:4.32;stroke-linecap:round;stroke-linejoin:round;stroke-miterlimit:10;stroke-dasharray:none;stroke-opacity:1"
         id="path262" /><path
         d="M 1730.16,851.02 V 527.031"
         style="fill:none;stroke:#000000;stroke-width:4.32;stroke-linecap:round;stroke-linejoin:round;stroke-miterlimit:10;stroke-dasharray:none;stroke-opacity:1"
         id="path264" /><path
         d="m 1341.37,851.02 h -43.21"
         style="fill:none;stroke:#000000;stroke-width:4.32;stroke-linecap:round;stroke-linejoin:round;stroke-miterlimit:10;stroke-dasharray:none;stroke-opacity:1"
         id="path266" /><path
         d="m 642.969,894.219 h 273.59"
         style="fill:none;stroke:#000000;stroke-width:4.32;stroke-linecap:round;stroke-linejoin:round;stroke-miterlimit:10;stroke-dasharray:none;stroke-opacity:1"
         id="path268" /><path
         d="M 642.969,894.219 V 793.441"
         style="fill:none;stroke:#000000;stroke-width:4.32;stroke-linecap:round;stroke-linejoin:round;stroke-miterlimit:10;stroke-dasharray:none;stroke-opacity:1"
         id="path270" /><path
         d="M 498.949,390.23 H 930.98"
         style="fill:none;stroke:#000000;stroke-width:4.32;stroke-linecap:round;stroke-linejoin:round;stroke-miterlimit:10;stroke-dasharray:none;stroke-opacity:1"
         id="path272" /><path
         d="m 1197.34,599.02 h 100.82"
         style="fill:none;stroke:#000000;stroke-width:4.32;stroke-linecap:round;stroke-linejoin:round;stroke-miterlimit:10;stroke-dasharray:none;stroke-opacity:1"
         id="path274" /><path
         d="m 642.969,1110.23 h 57.582"
         style="fill:none;stroke:#000000;stroke-width:4.32;stroke-linecap:round;stroke-linejoin:round;stroke-miterlimit:10;stroke-dasharray:none;stroke-opacity:1"
         id="path276" /><path
         d="m 655.941,231.84 c 0,7.14 -5.82,12.961 -12.972,12.961 -7.188,0 -12.969,-5.821 -12.969,-12.961 0,-7.149 5.781,-12.969 12.969,-12.969 7.152,0 12.972,5.82 12.972,12.969"
         style="fill:#000000;fill-opacity:1;fill-rule:nonzero;stroke:none"
         id="path278" /><path
         d="m 655.941,231.84 c 0,7.14 -5.82,12.961 -12.972,12.961 -7.188,0 -12.969,-5.821 -12.969,-12.961 0,-7.149 5.781,-12.969 12.969,-12.969 7.152,0 12.972,5.82 12.972,12.969"
         style="fill:none;stroke:#000000;stroke-width:4.32;stroke-linecap:round;stroke-linejoin:round;stroke-miterlimit:10;stroke-dasharray:none;stroke-opacity:1"
         id="path280" /><path
         d="m 511.91,390.23 c 0,7.149 -5.781,12.969 -12.961,12.969 -7.148,0 -12.929,-5.82 -12.929,-12.969 0,-7.14 5.781,-12.96 12.929,-12.96 7.18,0 12.961,5.82 12.961,12.96"
         style="fill:#000000;fill-opacity:1;fill-rule:nonzero;stroke:none"
         id="path282" /><path
         d="m 511.91,390.23 c 0,7.149 -5.781,12.969 -12.961,12.969 -7.148,0 -12.929,-5.82 -12.929,-12.969 0,-7.14 5.781,-12.96 12.929,-12.96 7.18,0 12.961,5.82 12.961,12.96"
         style="fill:none;stroke:#000000;stroke-width:4.32;stroke-linecap:round;stroke-linejoin:round;stroke-miterlimit:10;stroke-dasharray:none;stroke-opacity:1"
         id="path284" /><path
         d="m 1311.13,599.02 c 0,7.152 -5.82,12.968 -12.97,12.968 -7.14,0 -12.96,-5.816 -12.96,-12.968 0,-7.141 5.82,-12.969 12.96,-12.969 7.15,0 12.97,5.828 12.97,12.969"
         style="fill:#000000;fill-opacity:1;fill-rule:nonzero;stroke:none"
         id="path286" /><path
         d="m 1311.13,599.02 c 0,7.152 -5.82,12.968 -12.97,12.968 -7.14,0 -12.96,-5.816 -12.96,-12.968 0,-7.141 5.82,-12.969 12.96,-12.969 7.15,0 12.97,5.828 12.97,12.969"
         style="fill:none;stroke:#000000;stroke-width:4.32;stroke-linecap:round;stroke-linejoin:round;stroke-miterlimit:10;stroke-dasharray:none;stroke-opacity:1"
         id="path288" /><path
         d="m 655.941,1110.23 c 0,7.15 -5.82,12.97 -12.972,12.97 -7.188,0 -12.969,-5.82 -12.969,-12.97 0,-7.14 5.781,-12.96 12.969,-12.96 7.152,0 12.972,5.82 12.972,12.96"
         style="fill:#000000;fill-opacity:1;fill-rule:nonzero;stroke:none"
         id="path290" /><path
         d="m 655.941,1110.23 c 0,7.15 -5.82,12.97 -12.972,12.97 -7.188,0 -12.969,-5.82 -12.969,-12.97 0,-7.14 5.781,-12.96 12.969,-12.96 7.152,0 12.972,5.82 12.972,12.96"
         style="fill:none;stroke:#000000;stroke-width:4.32;stroke-linecap:round;stroke-linejoin:round;stroke-miterlimit:10;stroke-dasharray:none;stroke-opacity:1"
         id="path292" /><path
         d="m 655.941,15.8203 c 0,7.1914 -5.82,12.9688 -12.972,12.9688 -7.188,0 -12.969,-5.7774 -12.969,-12.9688 0,-7.14842 5.781,-12.96874 12.969,-12.96874 7.152,0 12.972,5.82032 12.972,12.96874"
         style="fill:#000000;fill-opacity:1;fill-rule:nonzero;stroke:none"
         id="path294" /><path
         d="m 655.941,15.8203 c 0,7.1914 -5.82,12.9688 -12.972,12.9688 -7.188,0 -12.969,-5.7774 -12.969,-12.9688 0,-7.14842 5.781,-12.96874 12.969,-12.96874 7.152,0 12.972,5.82032 12.972,12.96874"
         style="fill:none;stroke:#000000;stroke-width:4.32;stroke-linecap:round;stroke-linejoin:round;stroke-miterlimit:10;stroke-dasharray:none;stroke-opacity:1"
         id="path296" /><path
         d="m 1743.12,527.031 c 0,7.149 -5.82,12.969 -12.96,12.969 -7.15,0 -12.97,-5.82 -12.97,-12.969 0,-7.152 5.82,-12.972 12.97,-12.972 7.14,0 12.96,5.82 12.96,12.972"
         style="fill:#000000;fill-opacity:1;fill-rule:nonzero;stroke:none"
         id="path298" /><path
         d="m 1743.12,527.031 c 0,7.149 -5.82,12.969 -12.96,12.969 -7.15,0 -12.97,-5.82 -12.97,-12.969 0,-7.152 5.82,-12.972 12.97,-12.972 7.14,0 12.96,5.82 12.96,12.972"
         style="fill:none;stroke:#000000;stroke-width:4.32;stroke-linecap:round;stroke-linejoin:round;stroke-miterlimit:10;stroke-dasharray:none;stroke-opacity:1"
         id="path300" /><path
         d="m 655.941,894.219 c 0,7.152 -5.82,12.972 -12.972,12.972 -7.188,0 -12.969,-5.82 -12.969,-12.972 0,-7.149 5.781,-12.93 12.969,-12.93 7.152,0 12.972,5.781 12.972,12.93"
         style="fill:#000000;fill-opacity:1;fill-rule:nonzero;stroke:none"
         id="path302" /><path
         d="m 655.941,894.219 c 0,7.152 -5.82,12.972 -12.972,12.972 -7.188,0 -12.969,-5.82 -12.969,-12.972 0,-7.149 5.781,-12.93 12.969,-12.93 7.152,0 12.972,5.781 12.972,12.93"
         style="fill:none;stroke:#000000;stroke-width:4.32;stroke-linecap:round;stroke-linejoin:round;stroke-miterlimit:10;stroke-dasharray:none;stroke-opacity:1"
         id="path304" /></g></g></svg>
