<?xml version="1.0" encoding="UTF-8" standalone="no"?>
<svg
   xmlns:dc="http://purl.org/dc/elements/1.1/"
   xmlns:cc="http://creativecommons.org/ns#"
   xmlns:rdf="http://www.w3.org/1999/02/22-rdf-syntax-ns#"
   xmlns:svg="http://www.w3.org/2000/svg"
   xmlns="http://www.w3.org/2000/svg"
   xmlns:sodipodi="http://sodipodi.sourceforge.net/DTD/sodipodi-0.dtd"
   xmlns:inkscape="http://www.inkscape.org/namespaces/inkscape"
   version="1.1"
   id="svg2"
   xml:space="preserve"
   width="196"
   height="88"
   viewBox="0 0 196 88"
   sodipodi:docname="ckt4.eps"><metadata
     id="metadata8"><rdf:RDF><cc:Work
         rdf:about=""><dc:format>image/svg+xml</dc:format><dc:type
           rdf:resource="http://purl.org/dc/dcmitype/StillImage" /></cc:Work></rdf:RDF></metadata><defs
     id="defs6" /><sodipodi:namedview
     pagecolor="#ffffff"
     bordercolor="#666666"
     borderopacity="1"
     objecttolerance="10"
     gridtolerance="10"
     guidetolerance="10"
     inkscape:pageopacity="0"
     inkscape:pageshadow="2"
     inkscape:window-width="640"
     inkscape:window-height="480"
     id="namedview4" /><g
     id="g10"
     inkscape:groupmode="layer"
     inkscape:label="ink_ext_XXXXXX"
     transform="matrix(1.3333333,0,0,-1.3333333,0,88)"><g
       id="g12"
       transform="scale(0.1)"><path
         d="M 549.379,99.0195 837.34,243.051 549.379,387.031 V 99.0195"
         style="fill:none;stroke:#000000;stroke-width:7.2;stroke-linecap:round;stroke-linejoin:round;stroke-miterlimit:10;stroke-dasharray:none;stroke-opacity:1"
         id="path14" /><path
         d="m 837.34,243.051 h 72.039"
         style="fill:none;stroke:#000000;stroke-width:4.32;stroke-linecap:round;stroke-linejoin:round;stroke-miterlimit:10;stroke-dasharray:none;stroke-opacity:1"
         id="path16" /><path
         d="M 883.629,251.949 H 863.09"
         style="fill:none;stroke:#000000;stroke-width:4.32;stroke-linecap:round;stroke-linejoin:round;stroke-miterlimit:10;stroke-dasharray:none;stroke-opacity:1"
         id="path18" /><path
         d="m 873.359,251.949 v 35.981 l -3.437,-5.121 -3.442,-3.43 -3.39,-1.719"
         style="fill:none;stroke:#000000;stroke-width:4.32;stroke-linecap:round;stroke-linejoin:round;stroke-miterlimit:10;stroke-dasharray:none;stroke-opacity:1"
         id="path20" /><path
         d="M 549.379,315.039 H 477.34"
         style="fill:none;stroke:#000000;stroke-width:4.32;stroke-linecap:round;stroke-linejoin:round;stroke-miterlimit:10;stroke-dasharray:none;stroke-opacity:1"
         id="path22" /><path
         d="M 574.488,312.461 H 601.91"
         style="fill:none;stroke:#000000;stroke-width:4.32;stroke-linecap:round;stroke-linejoin:round;stroke-miterlimit:10;stroke-dasharray:none;stroke-opacity:1"
         id="path24" /><path
         d="m 503.09,356.52 1.711,1.718 3.398,1.684 h 8.602 l 3.429,-1.684 1.68,-1.718 1.719,-3.43 v -3.442 l -1.719,-5.16 -20.539,-20.539 h 22.258"
         style="fill:none;stroke:#000000;stroke-width:4.32;stroke-linecap:round;stroke-linejoin:round;stroke-miterlimit:10;stroke-dasharray:none;stroke-opacity:1"
         id="path26" /><path
         d="M 549.379,171.02 H 477.34"
         style="fill:none;stroke:#000000;stroke-width:4.32;stroke-linecap:round;stroke-linejoin:round;stroke-miterlimit:10;stroke-dasharray:none;stroke-opacity:1"
         id="path28" /><path
         d="M 574.488,168.48 H 601.91"
         style="fill:none;stroke:#000000;stroke-width:4.32;stroke-linecap:round;stroke-linejoin:round;stroke-miterlimit:10;stroke-dasharray:none;stroke-opacity:1"
         id="path30" /><path
         d="m 588.199,154.73 v 27.461"
         style="fill:none;stroke:#000000;stroke-width:4.32;stroke-linecap:round;stroke-linejoin:round;stroke-miterlimit:10;stroke-dasharray:none;stroke-opacity:1"
         id="path32" /><path
         d="m 501.371,215.941 h 22.258 L 511.641,202.23 h 5.16 l 3.429,-1.718 1.68,-1.723 1.719,-3.437 v -8.551 l -1.719,-3.403 -1.68,-1.757 -3.429,-1.719 H 506.48 l -3.39,1.719 -1.719,1.757"
         style="fill:none;stroke:#000000;stroke-width:4.32;stroke-linecap:round;stroke-linejoin:round;stroke-miterlimit:10;stroke-dasharray:none;stroke-opacity:1"
         id="path34" /><path
         d="m 582.621,269.961 h 6.828 l 3.442,-1.723 3.437,-3.437 1.723,-6.832 v -12.028 l -1.723,-6.839 -3.437,-3.442 -3.442,-1.711 h -6.828 l -3.441,1.711 -3.442,3.442 -1.718,6.839 v 12.028 l 1.718,6.832 3.442,3.437 3.441,1.723"
         style="fill:none;stroke:#000000;stroke-width:4.32;stroke-linecap:round;stroke-linejoin:round;stroke-miterlimit:10;stroke-dasharray:none;stroke-opacity:1"
         id="path36" /><path
         d="m 613.48,257.969 v -36.02"
         style="fill:none;stroke:#000000;stroke-width:4.32;stroke-linecap:round;stroke-linejoin:round;stroke-miterlimit:10;stroke-dasharray:none;stroke-opacity:1"
         id="path38" /><path
         d="m 613.48,256.211 3.43,1.758 h 6.84 l 3.441,-1.758 1.719,-1.68 1.711,-3.441 v -10.309 l -1.711,-3.402 -1.719,-1.719 -3.441,-1.711 h -6.84 l -3.43,1.711"
         style="fill:none;stroke:#000000;stroke-width:4.32;stroke-linecap:round;stroke-linejoin:round;stroke-miterlimit:10;stroke-dasharray:none;stroke-opacity:1"
         id="path40" /><path
         d="M 671.762,244.219 H 688.91"
         style="fill:none;stroke:#000000;stroke-width:4.32;stroke-linecap:round;stroke-linejoin:round;stroke-miterlimit:10;stroke-dasharray:none;stroke-opacity:1"
         id="path42" /><path
         d="m 668.32,233.949 11.989,36.012 12.031,-36.012"
         style="fill:none;stroke:#000000;stroke-width:4.32;stroke-linecap:round;stroke-linejoin:round;stroke-miterlimit:10;stroke-dasharray:none;stroke-opacity:1"
         id="path44" /><path
         d="m 704.34,233.949 v 24.02"
         style="fill:none;stroke:#000000;stroke-width:4.32;stroke-linecap:round;stroke-linejoin:round;stroke-miterlimit:10;stroke-dasharray:none;stroke-opacity:1"
         id="path46" /><path
         d="m 704.34,254.531 1.711,1.68 3.398,1.758 h 5.16 l 3.442,-1.758 1.719,-3.402 v -18.86"
         style="fill:none;stroke:#000000;stroke-width:4.32;stroke-linecap:round;stroke-linejoin:round;stroke-miterlimit:10;stroke-dasharray:none;stroke-opacity:1"
         id="path48" /><path
         d="m 719.77,252.809 1.71,3.402 3.399,1.758 h 5.16 l 3.441,-1.758 1.719,-3.402 v -18.86"
         style="fill:none;stroke:#000000;stroke-width:4.32;stroke-linecap:round;stroke-linejoin:round;stroke-miterlimit:10;stroke-dasharray:none;stroke-opacity:1"
         id="path50" /><path
         d="m 752.34,257.969 v -36.02"
         style="fill:none;stroke:#000000;stroke-width:4.32;stroke-linecap:round;stroke-linejoin:round;stroke-miterlimit:10;stroke-dasharray:none;stroke-opacity:1"
         id="path52" /><path
         d="m 752.34,256.211 3.398,1.758 h 6.883 l 3.43,-1.758 1.719,-1.68 1.679,-3.441 v -10.309 l -1.679,-3.402 -1.719,-1.719 -3.43,-1.711 h -6.883 l -3.398,1.711"
         style="fill:none;stroke:#000000;stroke-width:4.32;stroke-linecap:round;stroke-linejoin:round;stroke-miterlimit:10;stroke-dasharray:none;stroke-opacity:1"
         id="path54" /><path
         d="m 556.559,473.441 h 143.98 v 57.5781 h -143.98 z"
         style="fill:none;stroke:#000000;stroke-width:7.2;stroke-linecap:round;stroke-linejoin:round;stroke-miterlimit:10;stroke-dasharray:none;stroke-opacity:1"
         id="path56" /><path
         d="M 556.559,502.23 H 520.551"
         style="fill:none;stroke:#000000;stroke-width:4.32;stroke-linecap:round;stroke-linejoin:round;stroke-miterlimit:10;stroke-dasharray:none;stroke-opacity:1"
         id="path58" /><path
         d="m 700.551,502.23 h 36.008"
         style="fill:none;stroke:#000000;stroke-width:4.32;stroke-linecap:round;stroke-linejoin:round;stroke-miterlimit:10;stroke-dasharray:none;stroke-opacity:1"
         id="path60" /><path
         d="M 639.691,485.941 627.699,503.09"
         style="fill:none;stroke:#000000;stroke-width:4.32;stroke-linecap:round;stroke-linejoin:round;stroke-miterlimit:10;stroke-dasharray:none;stroke-opacity:1"
         id="path62" /><path
         d="m 619.141,485.941 v 36.008 h 13.711 l 3.437,-1.719 1.723,-1.71 1.679,-3.442 v -5.117 l -1.679,-3.441 -1.723,-1.719 -3.437,-1.711 h -13.711"
         style="fill:none;stroke:#000000;stroke-width:4.32;stroke-linecap:round;stroke-linejoin:round;stroke-miterlimit:10;stroke-dasharray:none;stroke-opacity:1"
         id="path64" /><path
         d="m 477.34,171.02 v -35.981 h 36.019 L 477.34,99.0195 441.371,135.039 h 35.969"
         style="fill:none;stroke:#000000;stroke-width:4.32;stroke-linecap:round;stroke-linejoin:round;stroke-miterlimit:10;stroke-dasharray:none;stroke-opacity:1"
         id="path66" /><path
         d="m 189.379,336.641 h 143.98 v 57.5781 h -143.98 z"
         style="fill:none;stroke:#000000;stroke-width:7.2;stroke-linecap:round;stroke-linejoin:round;stroke-miterlimit:10;stroke-dasharray:none;stroke-opacity:1"
         id="path68" /><path
         d="m 189.379,365.43 h -36.02"
         style="fill:none;stroke:#000000;stroke-width:4.32;stroke-linecap:round;stroke-linejoin:round;stroke-miterlimit:10;stroke-dasharray:none;stroke-opacity:1"
         id="path70" /><path
         d="m 333.359,365.43 h 36.02"
         style="fill:none;stroke:#000000;stroke-width:4.32;stroke-linecap:round;stroke-linejoin:round;stroke-miterlimit:10;stroke-dasharray:none;stroke-opacity:1"
         id="path72" /><path
         d="m 272.5,349.141 -11.988,17.148"
         style="fill:none;stroke:#000000;stroke-width:4.32;stroke-linecap:round;stroke-linejoin:round;stroke-miterlimit:10;stroke-dasharray:none;stroke-opacity:1"
         id="path74" /><path
         d="m 251.91,349.141 v 36.019 h 13.75 l 3.399,-1.719 1.722,-1.722 1.719,-3.438 v -5.121 l -1.719,-3.43 -1.722,-1.718 -3.399,-1.723 h -13.75"
         style="fill:none;stroke:#000000;stroke-width:4.32;stroke-linecap:round;stroke-linejoin:round;stroke-miterlimit:10;stroke-dasharray:none;stroke-opacity:1"
         id="path76" /><path
         d="m 189.379,444.648 h 143.98 v 57.582 h -143.98 z"
         style="fill:none;stroke:#000000;stroke-width:7.2;stroke-linecap:round;stroke-linejoin:round;stroke-miterlimit:10;stroke-dasharray:none;stroke-opacity:1"
         id="path78" /><path
         d="m 189.379,473.441 h -36.02"
         style="fill:none;stroke:#000000;stroke-width:4.32;stroke-linecap:round;stroke-linejoin:round;stroke-miterlimit:10;stroke-dasharray:none;stroke-opacity:1"
         id="path80" /><path
         d="m 333.359,473.441 h 36.02"
         style="fill:none;stroke:#000000;stroke-width:4.32;stroke-linecap:round;stroke-linejoin:round;stroke-miterlimit:10;stroke-dasharray:none;stroke-opacity:1"
         id="path82" /><path
         d="m 272.5,457.148 -11.988,17.153"
         style="fill:none;stroke:#000000;stroke-width:4.32;stroke-linecap:round;stroke-linejoin:round;stroke-miterlimit:10;stroke-dasharray:none;stroke-opacity:1"
         id="path84" /><path
         d="m 251.91,457.148 v 36.012 h 13.75 l 3.399,-1.711 1.722,-1.719 1.719,-3.441 v -5.16 l -1.719,-3.399 -1.722,-1.71 -3.399,-1.719 h -13.75"
         style="fill:none;stroke:#000000;stroke-width:4.32;stroke-linecap:round;stroke-linejoin:round;stroke-miterlimit:10;stroke-dasharray:none;stroke-opacity:1"
         id="path86" /><path
         d="m 189.379,559.84 h 143.98 v 57.582 h -143.98 z"
         style="fill:none;stroke:#000000;stroke-width:7.2;stroke-linecap:round;stroke-linejoin:round;stroke-miterlimit:10;stroke-dasharray:none;stroke-opacity:1"
         id="path88" /><path
         d="m 189.379,588.629 h -36.02"
         style="fill:none;stroke:#000000;stroke-width:4.32;stroke-linecap:round;stroke-linejoin:round;stroke-miterlimit:10;stroke-dasharray:none;stroke-opacity:1"
         id="path90" /><path
         d="m 333.359,588.629 h 36.02"
         style="fill:none;stroke:#000000;stroke-width:4.32;stroke-linecap:round;stroke-linejoin:round;stroke-miterlimit:10;stroke-dasharray:none;stroke-opacity:1"
         id="path92" /><path
         d="m 272.5,572.34 -11.988,17.148"
         style="fill:none;stroke:#000000;stroke-width:4.32;stroke-linecap:round;stroke-linejoin:round;stroke-miterlimit:10;stroke-dasharray:none;stroke-opacity:1"
         id="path94" /><path
         d="m 251.91,572.34 v 36.019 h 13.75 l 3.399,-1.718 1.722,-1.719 1.719,-3.442 v -5.109 l -1.719,-3.441 -1.722,-1.719 -3.399,-1.723 h -13.75"
         style="fill:none;stroke:#000000;stroke-width:4.32;stroke-linecap:round;stroke-linejoin:round;stroke-miterlimit:10;stroke-dasharray:none;stroke-opacity:1"
         id="path96" /><path
         d="m 189.379,5.42969 h 143.98 v 57.6211 h -143.98 z"
         style="fill:none;stroke:#000000;stroke-width:7.2;stroke-linecap:round;stroke-linejoin:round;stroke-miterlimit:10;stroke-dasharray:none;stroke-opacity:1"
         id="path98" /><path
         d="m 189.379,34.2188 h -36.02"
         style="fill:none;stroke:#000000;stroke-width:4.32;stroke-linecap:round;stroke-linejoin:round;stroke-miterlimit:10;stroke-dasharray:none;stroke-opacity:1"
         id="path100" /><path
         d="m 333.359,34.2188 h 36.02"
         style="fill:none;stroke:#000000;stroke-width:4.32;stroke-linecap:round;stroke-linejoin:round;stroke-miterlimit:10;stroke-dasharray:none;stroke-opacity:1"
         id="path102" /><path
         d="M 272.5,17.9688 260.512,35.0781"
         style="fill:none;stroke:#000000;stroke-width:4.32;stroke-linecap:round;stroke-linejoin:round;stroke-miterlimit:10;stroke-dasharray:none;stroke-opacity:1"
         id="path104" /><path
         d="m 251.91,17.9688 v 35.9804 h 13.75 l 3.399,-1.7187 1.722,-1.7188 1.719,-3.4023 v -5.1602 l -1.719,-3.4297 -1.722,-1.7187 -3.399,-1.7227 h -13.75"
         style="fill:none;stroke:#000000;stroke-width:4.32;stroke-linecap:round;stroke-linejoin:round;stroke-miterlimit:10;stroke-dasharray:none;stroke-opacity:1"
         id="path106" /><path
         d="m 980.781,262.539 -1.722,1.723 -3.438,5.117 -1.711,3.43 -1.719,5.16 -1.679,8.551 v 6.878 l 1.679,8.551 1.719,5.16 1.711,3.442 3.438,5.109 1.722,1.719"
         style="fill:none;stroke:#000000;stroke-width:4.32;stroke-linecap:round;stroke-linejoin:round;stroke-miterlimit:10;stroke-dasharray:none;stroke-opacity:1"
         id="path108" /><path
         d="m 989.34,312.23 12.03,-35.98 11.99,35.98"
         style="fill:none;stroke:#000000;stroke-width:4.32;stroke-linecap:round;stroke-linejoin:round;stroke-miterlimit:10;stroke-dasharray:none;stroke-opacity:1"
         id="path110" /><path
         d="m 1038.71,272.301 h -16.44"
         style="fill:none;stroke:#000000;stroke-width:4.32;stroke-linecap:round;stroke-linejoin:round;stroke-miterlimit:10;stroke-dasharray:none;stroke-opacity:1"
         id="path112" /><path
         d="m 1030.51,272.301 v 28.789 l -2.78,-4.102 -2.73,-2.726 -2.73,-1.41"
         style="fill:none;stroke:#000000;stroke-width:4.32;stroke-linecap:round;stroke-linejoin:round;stroke-miterlimit:10;stroke-dasharray:none;stroke-opacity:1"
         id="path114" /><path
         d="m 1052.77,289.961 h 27.43"
         style="fill:none;stroke:#000000;stroke-width:4.32;stroke-linecap:round;stroke-linejoin:round;stroke-miterlimit:10;stroke-dasharray:none;stroke-opacity:1"
         id="path116" /><path
         d="m 1066.48,276.25 v 27.422"
         style="fill:none;stroke:#000000;stroke-width:4.32;stroke-linecap:round;stroke-linejoin:round;stroke-miterlimit:10;stroke-dasharray:none;stroke-opacity:1"
         id="path118" /><path
         d="m 1092.19,312.23 12.03,-35.98 11.99,35.98"
         style="fill:none;stroke:#000000;stroke-width:4.32;stroke-linecap:round;stroke-linejoin:round;stroke-miterlimit:10;stroke-dasharray:none;stroke-opacity:1"
         id="path120" /><path
         d="m 1125.12,298.359 1.36,1.371 2.74,1.36 h 6.87 l 2.74,-1.36 1.37,-1.371 1.36,-2.738 v -2.769 l -1.36,-4.102 -16.45,-16.449 h 17.81"
         style="fill:none;stroke:#000000;stroke-width:4.32;stroke-linecap:round;stroke-linejoin:round;stroke-miterlimit:10;stroke-dasharray:none;stroke-opacity:1"
         id="path122" /><path
         d="m 1155.62,289.961 h 27.43"
         style="fill:none;stroke:#000000;stroke-width:4.32;stroke-linecap:round;stroke-linejoin:round;stroke-miterlimit:10;stroke-dasharray:none;stroke-opacity:1"
         id="path124" /><path
         d="m 1169.34,276.25 v 27.422"
         style="fill:none;stroke:#000000;stroke-width:4.32;stroke-linecap:round;stroke-linejoin:round;stroke-miterlimit:10;stroke-dasharray:none;stroke-opacity:1"
         id="path126" /><path
         d="m 1195.08,312.23 11.99,-35.98 11.99,35.98"
         style="fill:none;stroke:#000000;stroke-width:4.32;stroke-linecap:round;stroke-linejoin:round;stroke-miterlimit:10;stroke-dasharray:none;stroke-opacity:1"
         id="path128" /><path
         d="m 1226.6,301.09 h 17.85 l -9.61,-10.969 h 4.11 l 2.73,-1.371 1.37,-1.371 1.4,-2.731 v -6.878 l -1.4,-2.731 -1.37,-1.367 -2.73,-1.371 h -8.25 l -2.73,1.371 -1.37,1.367"
         style="fill:none;stroke:#000000;stroke-width:4.32;stroke-linecap:round;stroke-linejoin:round;stroke-miterlimit:10;stroke-dasharray:none;stroke-opacity:1"
         id="path130" /><path
         d="m 1258.48,289.961 h 27.46"
         style="fill:none;stroke:#000000;stroke-width:4.32;stroke-linecap:round;stroke-linejoin:round;stroke-miterlimit:10;stroke-dasharray:none;stroke-opacity:1"
         id="path132" /><path
         d="m 1272.19,276.25 v 27.422"
         style="fill:none;stroke:#000000;stroke-width:4.32;stroke-linecap:round;stroke-linejoin:round;stroke-miterlimit:10;stroke-dasharray:none;stroke-opacity:1"
         id="path134" /><path
         d="m 1303.05,279.691 1.72,-1.722 -1.72,-1.719 -1.68,1.719 1.68,1.722 v -3.441"
         style="fill:none;stroke:#000000;stroke-width:4.32;stroke-linecap:round;stroke-linejoin:round;stroke-miterlimit:10;stroke-dasharray:none;stroke-opacity:1"
         id="path136" /><path
         d="m 1320.2,279.691 1.71,-1.722 -1.71,-1.719 -1.72,1.719 1.72,1.722 v -3.441"
         style="fill:none;stroke:#000000;stroke-width:4.32;stroke-linecap:round;stroke-linejoin:round;stroke-miterlimit:10;stroke-dasharray:none;stroke-opacity:1"
         id="path138" /><path
         d="m 1337.34,279.691 1.72,-1.722 -1.72,-1.719 -1.72,1.719 1.72,1.722 v -3.441"
         style="fill:none;stroke:#000000;stroke-width:4.32;stroke-linecap:round;stroke-linejoin:round;stroke-miterlimit:10;stroke-dasharray:none;stroke-opacity:1"
         id="path140" /><path
         d="m 1354.49,289.961 h 27.42"
         style="fill:none;stroke:#000000;stroke-width:4.32;stroke-linecap:round;stroke-linejoin:round;stroke-miterlimit:10;stroke-dasharray:none;stroke-opacity:1"
         id="path142" /><path
         d="m 1368.2,276.25 v 27.422"
         style="fill:none;stroke:#000000;stroke-width:4.32;stroke-linecap:round;stroke-linejoin:round;stroke-miterlimit:10;stroke-dasharray:none;stroke-opacity:1"
         id="path144" /><path
         d="m 1393.91,312.23 12.03,-35.98 11.99,35.98"
         style="fill:none;stroke:#000000;stroke-width:4.32;stroke-linecap:round;stroke-linejoin:round;stroke-miterlimit:10;stroke-dasharray:none;stroke-opacity:1"
         id="path146" /><path
         d="M 1428.2,291.52 V 272.301"
         style="fill:none;stroke:#000000;stroke-width:4.32;stroke-linecap:round;stroke-linejoin:round;stroke-miterlimit:10;stroke-dasharray:none;stroke-opacity:1"
         id="path148" /><path
         d="m 1428.2,288.75 1.37,1.371 2.73,1.399 h 4.15 l 2.73,-1.399 1.37,-2.742 v -15.078"
         style="fill:none;stroke:#000000;stroke-width:4.32;stroke-linecap:round;stroke-linejoin:round;stroke-miterlimit:10;stroke-dasharray:none;stroke-opacity:1"
         id="path150" /><path
         d="m 1452.54,262.539 1.72,1.723 3.44,5.117 1.71,3.43 1.72,5.16 1.68,8.551 v 6.878 l -1.68,8.551 -1.72,5.16 -1.71,3.442 -3.44,5.109 -1.72,1.719"
         style="fill:none;stroke:#000000;stroke-width:4.32;stroke-linecap:round;stroke-linejoin:round;stroke-miterlimit:10;stroke-dasharray:none;stroke-opacity:1"
         id="path152" /><path
         d="m 14.9609,657.852 11.9883,-36.012 12,36.012"
         style="fill:none;stroke:#000000;stroke-width:4.32;stroke-linecap:round;stroke-linejoin:round;stroke-miterlimit:10;stroke-dasharray:none;stroke-opacity:1"
         id="path154" /><path
         d="M 64.3398,617.891 H 47.8516"
         style="fill:none;stroke:#000000;stroke-width:4.32;stroke-linecap:round;stroke-linejoin:round;stroke-miterlimit:10;stroke-dasharray:none;stroke-opacity:1"
         id="path156" /><path
         d="m 56.0898,617.891 v 28.828 l -2.7304,-4.141 -2.7696,-2.738 -2.7382,-1.36"
         style="fill:none;stroke:#000000;stroke-width:4.32;stroke-linecap:round;stroke-linejoin:round;stroke-miterlimit:10;stroke-dasharray:none;stroke-opacity:1"
         id="path158" /><path
         d="M 22.1484,535.43 34.1406,499.449 46.1289,535.43"
         style="fill:none;stroke:#000000;stroke-width:4.32;stroke-linecap:round;stroke-linejoin:round;stroke-miterlimit:10;stroke-dasharray:none;stroke-opacity:1"
         id="path160" /><path
         d="m 55.0781,521.559 1.3711,1.371 2.7305,1.371 h 6.8398 l 2.7696,-1.371 1.3711,-1.371 1.3593,-2.731 v -2.738 l -1.3593,-4.141 -16.4883,-16.437 h 17.8476"
         style="fill:none;stroke:#000000;stroke-width:4.32;stroke-linecap:round;stroke-linejoin:round;stroke-miterlimit:10;stroke-dasharray:none;stroke-opacity:1"
         id="path162" /><path
         d="m 29.3398,427.422 12.0313,-35.973 11.9883,35.973"
         style="fill:none;stroke:#000000;stroke-width:4.32;stroke-linecap:round;stroke-linejoin:round;stroke-miterlimit:10;stroke-dasharray:none;stroke-opacity:1"
         id="path164" /><path
         d="m 60.8984,416.289 h 17.8125 l -9.6093,-10.98 h 4.1367 l 2.7422,-1.36 1.3593,-1.371 1.3711,-2.738 v -6.828 L 77.3398,390.23 75.9805,388.871 73.2383,387.5 H 65 l -2.7305,1.371 -1.3711,1.359"
         style="fill:none;stroke:#000000;stroke-width:4.32;stroke-linecap:round;stroke-linejoin:round;stroke-miterlimit:10;stroke-dasharray:none;stroke-opacity:1"
         id="path166" /><path
         d="m 253.52,145.738 1.71,1.723 1.719,-1.723 -1.719,-1.679 -1.71,1.679 h 3.429"
         style="fill:none;stroke:#000000;stroke-width:4.32;stroke-linecap:round;stroke-linejoin:round;stroke-miterlimit:10;stroke-dasharray:none;stroke-opacity:1"
         id="path168" /><path
         d="m 253.52,190.309 1.71,1.722 1.719,-1.722 -1.719,-1.68 -1.71,1.68 h 3.429"
         style="fill:none;stroke:#000000;stroke-width:4.32;stroke-linecap:round;stroke-linejoin:round;stroke-miterlimit:10;stroke-dasharray:none;stroke-opacity:1"
         id="path170" /><path
         d="m 253.52,234.922 1.71,1.68 1.719,-1.68 -1.719,-1.723 -1.71,1.723 h 3.429"
         style="fill:none;stroke:#000000;stroke-width:4.32;stroke-linecap:round;stroke-linejoin:round;stroke-miterlimit:10;stroke-dasharray:none;stroke-opacity:1"
         id="path172" /><path
         d="m 253.52,279.488 1.71,1.684 1.719,-1.684 -1.719,-1.718 -1.71,1.718 h 3.429"
         style="fill:none;stroke:#000000;stroke-width:4.32;stroke-linecap:round;stroke-linejoin:round;stroke-miterlimit:10;stroke-dasharray:none;stroke-opacity:1"
         id="path174" /><path
         d="M 22.1484,96.25 34.1406,60.2305 46.1289,96.25"
         style="fill:none;stroke:#000000;stroke-width:4.32;stroke-linecap:round;stroke-linejoin:round;stroke-miterlimit:10;stroke-dasharray:none;stroke-opacity:1"
         id="path176" /><path
         d="M 56.4492,75.5117 V 56.2891"
         style="fill:none;stroke:#000000;stroke-width:4.32;stroke-linecap:round;stroke-linejoin:round;stroke-miterlimit:10;stroke-dasharray:none;stroke-opacity:1"
         id="path178" /><path
         d="m 56.4492,72.7695 1.3594,1.3711 2.7422,1.3711 h 4.0976 l 2.7735,-1.3711 1.3672,-2.7304 V 56.2891"
         style="fill:none;stroke:#000000;stroke-width:4.32;stroke-linecap:round;stroke-linejoin:round;stroke-miterlimit:10;stroke-dasharray:none;stroke-opacity:1"
         id="path180" /><path
         d="M 938.16,243.051 H 909.379"
         style="fill:none;stroke:#000000;stroke-width:4.32;stroke-linecap:round;stroke-linejoin:round;stroke-miterlimit:10;stroke-dasharray:none;stroke-opacity:1"
         id="path182" /><path
         d="m 938.16,243.051 h 309.61"
         style="fill:none;stroke:#000000;stroke-width:4.32;stroke-linecap:round;stroke-linejoin:round;stroke-miterlimit:10;stroke-dasharray:none;stroke-opacity:1"
         id="path184" /><path
         d="M 938.16,502.23 V 243.051"
         style="fill:none;stroke:#000000;stroke-width:4.32;stroke-linecap:round;stroke-linejoin:round;stroke-miterlimit:10;stroke-dasharray:none;stroke-opacity:1"
         id="path186" /><path
         d="M 736.559,502.23 H 938.16"
         style="fill:none;stroke:#000000;stroke-width:4.32;stroke-linecap:round;stroke-linejoin:round;stroke-miterlimit:10;stroke-dasharray:none;stroke-opacity:1"
         id="path188" /><path
         d="M 419.77,502.23 H 520.551"
         style="fill:none;stroke:#000000;stroke-width:4.32;stroke-linecap:round;stroke-linejoin:round;stroke-miterlimit:10;stroke-dasharray:none;stroke-opacity:1"
         id="path190" /><path
         d="M 369.379,315.039 H 419.77"
         style="fill:none;stroke:#000000;stroke-width:4.32;stroke-linecap:round;stroke-linejoin:round;stroke-miterlimit:10;stroke-dasharray:none;stroke-opacity:1"
         id="path192" /><path
         d="m 419.77,315.039 h 57.57"
         style="fill:none;stroke:#000000;stroke-width:4.32;stroke-linecap:round;stroke-linejoin:round;stroke-miterlimit:10;stroke-dasharray:none;stroke-opacity:1"
         id="path194" /><path
         d="M 369.379,315.039 V 34.2188"
         style="fill:none;stroke:#000000;stroke-width:4.32;stroke-linecap:round;stroke-linejoin:round;stroke-miterlimit:10;stroke-dasharray:none;stroke-opacity:1"
         id="path196" /><path
         d="M 419.77,502.23 V 315.039"
         style="fill:none;stroke:#000000;stroke-width:4.32;stroke-linecap:round;stroke-linejoin:round;stroke-miterlimit:10;stroke-dasharray:none;stroke-opacity:1"
         id="path198" /><path
         d="M 369.379,365.43 V 315.039"
         style="fill:none;stroke:#000000;stroke-width:4.32;stroke-linecap:round;stroke-linejoin:round;stroke-miterlimit:10;stroke-dasharray:none;stroke-opacity:1"
         id="path200" /><path
         d="M 369.379,588.629 V 473.441"
         style="fill:none;stroke:#000000;stroke-width:4.32;stroke-linecap:round;stroke-linejoin:round;stroke-miterlimit:10;stroke-dasharray:none;stroke-opacity:1"
         id="path202" /><path
         d="M 369.379,473.441 V 365.43"
         style="fill:none;stroke:#000000;stroke-width:4.32;stroke-linecap:round;stroke-linejoin:round;stroke-miterlimit:10;stroke-dasharray:none;stroke-opacity:1"
         id="path204" /><path
         d="M 2.14844,473.441 H 153.359"
         style="fill:none;stroke:#000000;stroke-width:4.32;stroke-linecap:round;stroke-linejoin:round;stroke-miterlimit:10;stroke-dasharray:none;stroke-opacity:1"
         id="path206" /><path
         d="M 2.14844,588.629 H 153.359"
         style="fill:none;stroke:#000000;stroke-width:4.32;stroke-linecap:round;stroke-linejoin:round;stroke-miterlimit:10;stroke-dasharray:none;stroke-opacity:1"
         id="path208" /><path
         d="M 2.14844,365.43 H 153.359"
         style="fill:none;stroke:#000000;stroke-width:4.32;stroke-linecap:round;stroke-linejoin:round;stroke-miterlimit:10;stroke-dasharray:none;stroke-opacity:1"
         id="path210" /><path
         d="M 2.14844,34.2188 H 153.359"
         style="fill:none;stroke:#000000;stroke-width:4.32;stroke-linecap:round;stroke-linejoin:round;stroke-miterlimit:10;stroke-dasharray:none;stroke-opacity:1"
         id="path212" /><path
         d="m 951.129,243.051 c 0,7.148 -5.82,12.929 -12.969,12.929 -7.14,0 -12.961,-5.781 -12.961,-12.929 0,-7.192 5.821,-12.973 12.961,-12.973 7.149,0 12.969,5.781 12.969,12.973"
         style="fill:#000000;fill-opacity:1;fill-rule:nonzero;stroke:none"
         id="path214" /><path
         d="m 951.129,243.051 c 0,7.148 -5.82,12.929 -12.969,12.929 -7.14,0 -12.961,-5.781 -12.961,-12.929 0,-7.192 5.821,-12.973 12.961,-12.973 7.149,0 12.969,5.781 12.969,12.973"
         style="fill:none;stroke:#000000;stroke-width:4.32;stroke-linecap:round;stroke-linejoin:round;stroke-miterlimit:10;stroke-dasharray:none;stroke-opacity:1"
         id="path216" /><path
         d="m 432.73,315.039 c 0,7.152 -5.82,12.973 -12.96,12.973 -7.149,0 -12.969,-5.821 -12.969,-12.973 0,-7.187 5.82,-12.969 12.969,-12.969 7.14,0 12.96,5.782 12.96,12.969"
         style="fill:#000000;fill-opacity:1;fill-rule:nonzero;stroke:none"
         id="path218" /><path
         d="m 432.73,315.039 c 0,7.152 -5.82,12.973 -12.96,12.973 -7.149,0 -12.969,-5.821 -12.969,-12.973 0,-7.187 5.82,-12.969 12.969,-12.969 7.14,0 12.96,5.782 12.96,12.969"
         style="fill:none;stroke:#000000;stroke-width:4.32;stroke-linecap:round;stroke-linejoin:round;stroke-miterlimit:10;stroke-dasharray:none;stroke-opacity:1"
         id="path220" /><path
         d="m 382.301,315.039 c 0,7.152 -5.781,12.973 -12.922,12.973 -7.188,0 -12.969,-5.821 -12.969,-12.973 0,-7.187 5.781,-12.969 12.969,-12.969 7.141,0 12.922,5.782 12.922,12.969"
         style="fill:#000000;fill-opacity:1;fill-rule:nonzero;stroke:none"
         id="path222" /><path
         d="m 382.301,315.039 c 0,7.152 -5.781,12.973 -12.922,12.973 -7.188,0 -12.969,-5.821 -12.969,-12.973 0,-7.187 5.781,-12.969 12.969,-12.969 7.141,0 12.922,5.782 12.922,12.969"
         style="fill:none;stroke:#000000;stroke-width:4.32;stroke-linecap:round;stroke-linejoin:round;stroke-miterlimit:10;stroke-dasharray:none;stroke-opacity:1"
         id="path224" /><path
         d="m 382.301,473.441 c 0,7.149 -5.781,12.969 -12.922,12.969 -7.188,0 -12.969,-5.82 -12.969,-12.969 0,-7.152 5.781,-12.972 12.969,-12.972 7.141,0 12.922,5.82 12.922,12.972"
         style="fill:#000000;fill-opacity:1;fill-rule:nonzero;stroke:none"
         id="path226" /><path
         d="m 382.301,473.441 c 0,7.149 -5.781,12.969 -12.922,12.969 -7.188,0 -12.969,-5.82 -12.969,-12.969 0,-7.152 5.781,-12.972 12.969,-12.972 7.141,0 12.922,5.82 12.922,12.972"
         style="fill:none;stroke:#000000;stroke-width:4.32;stroke-linecap:round;stroke-linejoin:round;stroke-miterlimit:10;stroke-dasharray:none;stroke-opacity:1"
         id="path228" /><path
         d="m 382.301,365.43 c 0,7.148 -5.781,12.968 -12.922,12.968 -7.188,0 -12.969,-5.82 -12.969,-12.968 0,-7.149 5.781,-12.969 12.969,-12.969 7.141,0 12.922,5.82 12.922,12.969"
         style="fill:#000000;fill-opacity:1;fill-rule:nonzero;stroke:none"
         id="path230" /><path
         d="m 382.301,365.43 c 0,7.148 -5.781,12.968 -12.922,12.968 -7.188,0 -12.969,-5.82 -12.969,-12.968 0,-7.149 5.781,-12.969 12.969,-12.969 7.141,0 12.922,5.82 12.922,12.969"
         style="fill:none;stroke:#000000;stroke-width:4.32;stroke-linecap:round;stroke-linejoin:round;stroke-miterlimit:10;stroke-dasharray:none;stroke-opacity:1"
         id="path232" /></g></g></svg>
