<?xml version="1.0" standalone="no"?>
 <!DOCTYPE svg PUBLIC "-//W3C//DTD SVG 1.1//EN" 
 "http://www.w3.org/Graphics/SVG/1.1/DTD/svg11.dtd"> 
<svg
  xmlns:svg="http://www.w3.org/2000/svg"
  xmlns="http://www.w3.org/2000/svg"
  xmlns:xlink="http://www.w3.org/1999/xlink"
  version="1.1"
  width="29.700220cm" height="21.000720cm" viewBox="0 0 116930 82680">
<title>SVG Picture created as ckt6.svg date 2022/06/07 20:31:39 </title>
  <desc>Picture generated by Eeschema-SVG </desc>
<g style="fill:#000000; fill-opacity:1.000000;stroke:#000000; stroke-opacity:1.000000;
stroke-linecap:round; stroke-linejoin:round;"
 transform="translate(0 0) scale(1 1)">
</g>
<g style="fill:#000000; fill-opacity:0.0; 
stroke:#000000; stroke-width:60.000000; stroke-opacity:1; 
stroke-linecap:round; stroke-linejoin:round;">
<g >
</g>
<g style="fill:#000000; fill-opacity:0.0; 
stroke:#000000; stroke-width:100.000000; stroke-opacity:1; 
stroke-linecap:round; stroke-linejoin:round;">
<rect x="33700.000000" y="22400.000000" width="800.000000" height="2000.000000" rx="0.000000" />
</g>
<g style="fill:#000000; fill-opacity:0.0; 
stroke:#000000; stroke-width:60.000000; stroke-opacity:1; 
stroke-linecap:round; stroke-linejoin:round;">
<path d="M34100 24400
L34100 24900
" />
<path d="M34100 22400
L34100 21900
" />
<g transform="rotate(-90.000000 35099.960630 23400.000000)">
<text x="35099.960630" y="23650.000000"
textLength="976.220472" font-size="666.653543" lengthAdjust="spacingAndGlyphs"
text-anchor="middle" opacity="0">R6</text>
</g>
<g class="stroked-text"><desc>R6</desc>
<path d="M35326 23483
L35088 23650
" />
<path d="M35326 23769
L34826 23769
L34826 23578
L34849 23530
L34873 23507
L34921 23483
L34992 23483
L35040 23507
L35064 23530
L35088 23578
L35088 23769
" />
<path d="M34826 23054
L34826 23150
L34849 23197
L34873 23221
L34945 23269
L35040 23292
L35230 23292
L35278 23269
L35302 23245
L35326 23197
L35326 23102
L35302 23054
L35278 23030
L35230 23007
L35111 23007
L35064 23030
L35040 23054
L35016 23102
L35016 23197
L35040 23245
L35064 23269
L35111 23292
" />
</g><g transform="rotate(-90.000000 34099.960630 23400.000000)">
<text x="34099.960630" y="23650.000000"
textLength="1417.125984" font-size="666.653543" lengthAdjust="spacingAndGlyphs"
text-anchor="middle" opacity="0">10k</text>
</g>
<g class="stroked-text"><desc>10k</desc>
<path d="M34326 23697
L34326 23983
" />
<path d="M34326 23840
L33826 23840
L33897 23888
L33945 23935
L33968 23983
" />
<path d="M33826 23388
L33826 23340
L33849 23292
L33873 23269
L33921 23245
L34016 23221
L34135 23221
L34230 23245
L34278 23269
L34302 23292
L34326 23340
L34326 23388
L34302 23435
L34278 23459
L34230 23483
L34135 23507
L34016 23507
L33921 23483
L33873 23459
L33849 23435
L33826 23388
" />
<path d="M34326 23007
L33826 23007
" />
<path d="M34135 22959
L34326 22816
" />
<path d="M33992 22816
L34183 23007
" />
</g></g>
</g>
<g style="fill:#000000; fill-opacity:0.0; 
stroke:#000000; stroke-width:60.000000; stroke-opacity:1; 
stroke-linecap:round; stroke-linejoin:round;">
<g >
</g>
<g style="fill:#000000; fill-opacity:0.0; 
stroke:#000000; stroke-width:100.000000; stroke-opacity:1; 
stroke-linecap:round; stroke-linejoin:round;">
<rect x="46300.000000" y="14700.000000" width="2000.000000" height="800.000000" rx="0.000000" />
</g>
<g style="fill:#000000; fill-opacity:0.0; 
stroke:#000000; stroke-width:60.000000; stroke-opacity:1; 
stroke-linecap:round; stroke-linejoin:round;">
<path d="M46300 15100
L45800 15100
" />
<path d="M48300 15100
L48800 15100
" />
<text x="47300.000000" y="16349.960630"
textLength="1512.362205" font-size="666.653543" lengthAdjust="spacingAndGlyphs"
text-anchor="middle" opacity="0">R16</text>
<g class="stroked-text"><desc>R16</desc>
<path d="M46978 16326
L46811 16088
" />
<path d="M46692 16326
L46692 15826
L46883 15826
L46930 15849
L46954 15873
L46978 15921
L46978 15992
L46954 16040
L46930 16064
L46883 16088
L46692 16088
" />
<path d="M47454 16326
L47169 16326
" />
<path d="M47311 16326
L47311 15826
L47264 15897
L47216 15945
L47169 15968
" />
<path d="M47883 15826
L47788 15826
L47740 15849
L47716 15873
L47669 15945
L47645 16040
L47645 16230
L47669 16278
L47692 16302
L47740 16326
L47835 16326
L47883 16302
L47907 16278
L47930 16230
L47930 16111
L47907 16064
L47883 16040
L47835 16016
L47740 16016
L47692 16040
L47669 16064
L47645 16111
" />
</g><text x="47300.000000" y="15349.960630"
textLength="940.944882" font-size="666.653543" lengthAdjust="spacingAndGlyphs"
text-anchor="middle" opacity="0">1k</text>
<g class="stroked-text"><desc>1k</desc>
<path d="M47240 15326
L46954 15326
" />
<path d="M47097 15326
L47097 14826
L47050 14897
L47002 14945
L46954 14968
" />
<path d="M47454 15326
L47454 14826
" />
<path d="M47502 15135
L47645 15326
" />
<path d="M47645 14992
L47454 15183
" />
</g></g>
</g>
<g style="fill:#000000; fill-opacity:0.0; 
stroke:#000000; stroke-width:60.000000; stroke-opacity:1; 
stroke-linecap:round; stroke-linejoin:round;">
<g >
</g>
<g style="fill:#000000; fill-opacity:0.0; 
stroke:#000000; stroke-width:100.000000; stroke-opacity:1; 
stroke-linecap:round; stroke-linejoin:round;">
<rect x="40400.000000" y="14100.000000" width="2000.000000" height="800.000000" rx="0.000000" />
</g>
<g style="fill:#000000; fill-opacity:0.0; 
stroke:#000000; stroke-width:60.000000; stroke-opacity:1; 
stroke-linecap:round; stroke-linejoin:round;">
<path d="M42400 14500
L42900 14500
" />
<path d="M40400 14500
L39900 14500
" />
<text x="41400.000000" y="13750.000000"
textLength="1512.362205" font-size="666.653543" lengthAdjust="spacingAndGlyphs"
text-anchor="middle" opacity="0">R14</text>
<g class="stroked-text"><desc>R14</desc>
<path d="M41078 13726
L40911 13488
" />
<path d="M40792 13726
L40792 13226
L40983 13226
L41030 13250
L41054 13273
L41078 13321
L41078 13392
L41054 13440
L41030 13464
L40983 13488
L40792 13488
" />
<path d="M41554 13726
L41269 13726
" />
<path d="M41411 13726
L41411 13226
L41364 13297
L41316 13345
L41269 13369
" />
<path d="M41983 13392
L41983 13726
" />
<path d="M41864 13202
L41745 13559
L42054 13559
" />
</g><text x="41400.000000" y="14750.000000"
textLength="940.944882" font-size="666.653543" lengthAdjust="spacingAndGlyphs"
text-anchor="middle" opacity="0">1k</text>
<g class="stroked-text"><desc>1k</desc>
<path d="M41340 14726
L41054 14726
" />
<path d="M41197 14726
L41197 14226
L41150 14297
L41102 14345
L41054 14369
" />
<path d="M41554 14726
L41554 14226
" />
<path d="M41602 14535
L41745 14726
" />
<path d="M41745 14392
L41554 14583
" />
</g></g>
</g>
<g style="fill:#000000; fill-opacity:0.0; 
stroke:#000000; stroke-width:60.000000; stroke-opacity:1; 
stroke-linecap:round; stroke-linejoin:round;">
<g >
</g>
<g style="fill:#000000; fill-opacity:0.0; 
stroke:#000000; stroke-width:100.000000; stroke-opacity:1; 
stroke-linecap:round; stroke-linejoin:round;">
<rect x="40100.000000" y="23300.000000" width="2000.000000" height="800.000000" rx="0.000000" />
</g>
<g style="fill:#000000; fill-opacity:0.0; 
stroke:#000000; stroke-width:60.000000; stroke-opacity:1; 
stroke-linecap:round; stroke-linejoin:round;">
<path d="M42100 23700
L42600 23700
" />
<path d="M40100 23700
L39600 23700
" />
<text x="41100.000000" y="22950.000000"
textLength="1512.362205" font-size="666.653543" lengthAdjust="spacingAndGlyphs"
text-anchor="middle" opacity="0">R12</text>
<g class="stroked-text"><desc>R12</desc>
<path d="M40778 22926
L40611 22688
" />
<path d="M40492 22926
L40492 22426
L40683 22426
L40730 22450
L40754 22473
L40778 22521
L40778 22592
L40754 22640
L40730 22664
L40683 22688
L40492 22688
" />
<path d="M41254 22926
L40969 22926
" />
<path d="M41111 22926
L41111 22426
L41064 22497
L41016 22545
L40969 22569
" />
<path d="M41445 22473
L41469 22450
L41516 22426
L41635 22426
L41683 22450
L41707 22473
L41730 22521
L41730 22569
L41707 22640
L41421 22926
L41730 22926
" />
</g><text x="41100.000000" y="23950.000000"
textLength="940.944882" font-size="666.653543" lengthAdjust="spacingAndGlyphs"
text-anchor="middle" opacity="0">1k</text>
<g class="stroked-text"><desc>1k</desc>
<path d="M41040 23926
L40754 23926
" />
<path d="M40897 23926
L40897 23426
L40850 23497
L40802 23545
L40754 23569
" />
<path d="M41254 23926
L41254 23426
" />
<path d="M41302 23735
L41445 23926
" />
<path d="M41445 23592
L41254 23783
" />
</g></g>
</g>
<g style="fill:#000000; fill-opacity:0.0; 
stroke:#000000; stroke-width:60.000000; stroke-opacity:1; 
stroke-linecap:round; stroke-linejoin:round;">
<g >
</g>
<g style="fill:#000000; fill-opacity:0.0; 
stroke:#000000; stroke-width:100.000000; stroke-opacity:1; 
stroke-linecap:round; stroke-linejoin:round;">
<rect x="35700.000000" y="24200.000000" width="800.000000" height="2000.000000" rx="0.000000" />
</g>
<g style="fill:#000000; fill-opacity:0.0; 
stroke:#000000; stroke-width:60.000000; stroke-opacity:1; 
stroke-linecap:round; stroke-linejoin:round;">
<path d="M36100 26200
L36100 26700
" />
<path d="M36100 24200
L36100 23700
" />
<g transform="rotate(-90.000000 37099.960630 25200.000000)">
<text x="37099.960630" y="25450.000000"
textLength="1036.181102" font-size="666.653543" lengthAdjust="spacingAndGlyphs"
text-anchor="middle" opacity="0">R9</text>
</g>
<g class="stroked-text"><desc>R9</desc>
<path d="M37326 25283
L37088 25450
" />
<path d="M37326 25569
L36826 25569
L36826 25378
L36849 25330
L36873 25307
L36921 25283
L36992 25283
L37040 25307
L37064 25330
L37088 25378
L37088 25569
" />
<path d="M37326 25045
L37326 24950
L37302 24902
L37278 24878
L37207 24830
L37111 24807
L36921 24807
L36873 24830
L36849 24854
L36826 24902
L36826 24997
L36849 25045
L36873 25069
L36921 25092
L37040 25092
L37088 25069
L37111 25045
L37135 24997
L37135 24902
L37111 24854
L37088 24830
L37040 24807
" />
</g><g transform="rotate(-90.000000 36099.960630 25200.000000)">
<text x="36099.960630" y="25450.000000"
textLength="940.944882" font-size="666.653543" lengthAdjust="spacingAndGlyphs"
text-anchor="middle" opacity="0">1k</text>
</g>
<g class="stroked-text"><desc>1k</desc>
<path d="M36326 25259
L36326 25545
" />
<path d="M36326 25402
L35826 25402
L35897 25450
L35945 25497
L35968 25545
" />
<path d="M36326 25045
L35826 25045
" />
<path d="M36135 24997
L36326 24854
" />
<path d="M35992 24854
L36183 25045
" />
</g></g>
</g>
<g style="fill:#000000; fill-opacity:0.0; 
stroke:#000000; stroke-width:60.000000; stroke-opacity:1; 
stroke-linecap:round; stroke-linejoin:round;">
<g >
</g>
<g style="fill:#000000; fill-opacity:1.0; 
stroke:#000000; stroke-width:60.000000; stroke-opacity:1; 
stroke-linecap:round; stroke-linejoin:round;">
<path style="fill:#000000; fill-opacity:1.0; 
stroke:#000000; stroke-width:60.000000; stroke-opacity:1; 
stroke-linecap:round; stroke-linejoin:round;fill-rule:evenodd;"
d="M 36100.000000,26700.000000
36100.000000,27200.000000
35800.000000,27200.000000
36100.000000,27700.000000
36400.000000,27200.000000
36100.000000,27200.000000
" /> 
</g>
<g style="fill:#000000; fill-opacity:0.0; 
stroke:#000000; stroke-width:60.000000; stroke-opacity:1; 
stroke-linecap:round; stroke-linejoin:round;">
<text x="36099.960630" y="28749.960630"
textLength="1583.818898" font-size="666.653543" lengthAdjust="spacingAndGlyphs"
text-anchor="middle" opacity="0">-5V</text>
<g class="stroked-text"><desc>-5V</desc>
<path d="M35457 28535
L35838 28535
" />
<path d="M36314 28226
L36076 28226
L36052 28464
L36076 28440
L36123 28416
L36242 28416
L36290 28440
L36314 28464
L36338 28511
L36338 28630
L36314 28678
L36290 28702
L36242 28726
L36123 28726
L36076 28702
L36052 28678
" />
<path d="M36480 28226
L36647 28726
L36814 28226
" />
</g></g>
</g>
<g style="fill:#000000; fill-opacity:0.0; 
stroke:#000000; stroke-width:60.000000; stroke-opacity:1; 
stroke-linecap:round; stroke-linejoin:round;">
<g >
<path style="fill:#000000; fill-opacity:0.0; 
stroke:#000000; stroke-width:60.000000; stroke-opacity:1; 
stroke-linecap:round; stroke-linejoin:round;fill:none"
d="M 35800.000000,11000.000000
36100.000000,10500.000000
" /> 
<path style="fill:#000000; fill-opacity:0.0; 
stroke:#000000; stroke-width:60.000000; stroke-opacity:1; 
stroke-linecap:round; stroke-linejoin:round;fill:none"
d="M 36100.000000,11500.000000
36100.000000,10500.000000
" /> 
<path style="fill:#000000; fill-opacity:0.0; 
stroke:#000000; stroke-width:60.000000; stroke-opacity:1; 
stroke-linecap:round; stroke-linejoin:round;fill:none"
d="M 36100.000000,10500.000000
36400.000000,11000.000000
" /> 
<text x="36100.000000" y="9950.000000"
textLength="1583.818898" font-size="666.653543" lengthAdjust="spacingAndGlyphs"
text-anchor="middle" opacity="0">+5V</text>
<g class="stroked-text"><desc>+5V</desc>
<path d="M35457 9735
L35838 9735
" />
<path d="M35647 9926
L35647 9545
" />
<path d="M36314 9426
L36076 9426
L36052 9664
L36076 9640
L36123 9616
L36242 9616
L36290 9640
L36314 9664
L36338 9711
L36338 9830
L36314 9878
L36290 9902
L36242 9926
L36123 9926
L36076 9902
L36052 9878
" />
<path d="M36480 9426
L36647 9926
L36814 9426
" />
</g></g>
</g>
<g style="fill:#000000; fill-opacity:0.0; 
stroke:#000000; stroke-width:60.000000; stroke-opacity:1; 
stroke-linecap:round; stroke-linejoin:round;">
<g >
</g>
<g style="fill:#000000; fill-opacity:0.0; 
stroke:#000000; stroke-width:100.000000; stroke-opacity:1; 
stroke-linecap:round; stroke-linejoin:round;">
<rect x="35700.000000" y="12000.000000" width="800.000000" height="2000.000000" rx="0.000000" />
</g>
<g style="fill:#000000; fill-opacity:0.0; 
stroke:#000000; stroke-width:60.000000; stroke-opacity:1; 
stroke-linecap:round; stroke-linejoin:round;">
<path d="M36100 14000
L36100 14500
" />
<path d="M36100 12000
L36100 11500
" />
<g transform="rotate(-90.000000 37099.960630 13000.000000)">
<text x="37099.960630" y="13250.000000"
textLength="1036.181102" font-size="666.653543" lengthAdjust="spacingAndGlyphs"
text-anchor="middle" opacity="0">R8</text>
</g>
<g class="stroked-text"><desc>R8</desc>
<path d="M37326 13083
L37088 13250
" />
<path d="M37326 13369
L36826 13369
L36826 13178
L36849 13130
L36873 13107
L36921 13083
L36992 13083
L37040 13107
L37064 13130
L37088 13178
L37088 13369
" />
<path d="M37040 12797
L37016 12845
L36992 12869
L36945 12892
L36921 12892
L36873 12869
L36849 12845
L36826 12797
L36826 12702
L36849 12654
L36873 12630
L36921 12607
L36945 12607
L36992 12630
L37016 12654
L37040 12702
L37040 12797
L37064 12845
L37088 12869
L37135 12892
L37230 12892
L37278 12869
L37302 12845
L37326 12797
L37326 12702
L37302 12654
L37278 12630
L37230 12607
L37135 12607
L37088 12630
L37064 12654
L37040 12702
" />
</g><g transform="rotate(-90.000000 36099.960630 13000.000000)">
<text x="36099.960630" y="13250.000000"
textLength="940.944882" font-size="666.653543" lengthAdjust="spacingAndGlyphs"
text-anchor="middle" opacity="0">1k</text>
</g>
<g class="stroked-text"><desc>1k</desc>
<path d="M36326 13059
L36326 13345
" />
<path d="M36326 13202
L35826 13202
L35897 13250
L35945 13297
L35968 13345
" />
<path d="M36326 12845
L35826 12845
" />
<path d="M36135 12797
L36326 12654
" />
<path d="M35992 12654
L36183 12845
" />
</g></g>
</g>
<g style="fill:#000000; fill-opacity:0.0; 
stroke:#000000; stroke-width:60.000000; stroke-opacity:1; 
stroke-linecap:round; stroke-linejoin:round;">
<g >
<path style="fill:#000000; fill-opacity:0.0; 
stroke:#000000; stroke-width:60.000000; stroke-opacity:1; 
stroke-linecap:round; stroke-linejoin:round;fill:none"
d="M 34100.000000,24900.000000
34100.000000,25400.000000
34600.000000,25400.000000
34100.000000,25900.000000
33600.000000,25400.000000
34100.000000,25400.000000
" /> 
</g>
</g>
<g style="fill:#000000; fill-opacity:0.0; 
stroke:#000000; stroke-width:60.000000; stroke-opacity:1; 
stroke-linecap:round; stroke-linejoin:round;">
<g >
</g>
<g style="fill:#000000; fill-opacity:0.0; 
stroke:#000000; stroke-width:100.000000; stroke-opacity:1; 
stroke-linecap:round; stroke-linejoin:round;">
<path style="fill:#000000; fill-opacity:0.0; 
stroke:#000000; stroke-width:100.000000; stroke-opacity:1; 
stroke-linecap:round; stroke-linejoin:round;fill:none"
d="M 35100.000000,16900.000000
39100.000000,18900.000000
35100.000000,20900.000000
Z" /> 
</g>
<g style="fill:#000000; fill-opacity:0.0; 
stroke:#000000; stroke-width:60.000000; stroke-opacity:1; 
stroke-linecap:round; stroke-linejoin:round;">
<path d="M37100 19900
L37100 21900
" />
<g transform="rotate(-90.000000 37100.000000 19850.000000)">
<text x="37100.000000" y="19950.000000"
textLength="631.417323" font-size="266.653543" lengthAdjust="spacingAndGlyphs"
text-anchor="start" opacity="0">VOS</text>
</g>
<g class="stroked-text"><desc>VOS</desc>
<path d="M36990 19800
L37190 19734
L36990 19667
" />
<path d="M36990 19562
L36990 19524
L37000 19505
L37019 19486
L37057 19477
L37123 19477
L37161 19486
L37180 19505
L37190 19524
L37190 19562
L37180 19581
L37161 19600
L37123 19610
L37057 19610
L37019 19600
L37000 19581
L36990 19562
" />
<path d="M37180 19400
L37190 19372
L37190 19324
L37180 19305
L37171 19296
L37152 19286
L37133 19286
L37114 19296
L37104 19305
L37095 19324
L37085 19362
L37076 19381
L37066 19391
L37047 19400
L37028 19400
L37009 19391
L37000 19381
L36990 19362
L36990 19315
L37000 19286
" />
</g><g transform="rotate(-90.000000 37000.000000 20900.000000)">
<text x="37000.000000" y="20900.000000"
textLength="536.181102" font-size="666.653543" lengthAdjust="spacingAndGlyphs"
text-anchor="middle" opacity="0">1</text>
</g>
<g class="stroked-text"><desc>1</desc>
<path d="M36976 20757
L36976 21042
" />
<path d="M36976 20900
L36476 20900
L36547 20947
L36595 20995
L36619 21042
" />
</g><path d="M35100 19900
L34100 19900
" />
<text x="35150.000000" y="20150.000000"
textLength="679.055118" font-size="666.653543" lengthAdjust="spacingAndGlyphs"
text-anchor="start" opacity="0">-</text>
<g class="stroked-text"><desc>-</desc>
<path d="M35299 19935
L35680 19935
" />
</g><text x="34600.000000" y="19800.000000"
textLength="536.181102" font-size="666.653543" lengthAdjust="spacingAndGlyphs"
text-anchor="middle" opacity="0">2</text>
<g class="stroked-text"><desc>2</desc>
<path d="M34457 19323
L34480 19300
L34528 19276
L34647 19276
L34695 19300
L34719 19323
L34742 19371
L34742 19419
L34719 19490
L34433 19776
L34742 19776
" />
</g><path d="M35100 17900
L34100 17900
" />
<text x="35150.000000" y="18150.000000"
textLength="679.055118" font-size="666.653543" lengthAdjust="spacingAndGlyphs"
text-anchor="start" opacity="0">+</text>
<g class="stroked-text"><desc>+</desc>
<path d="M35299 17935
L35680 17935
" />
<path d="M35489 18126
L35489 17745
" />
</g><text x="34600.000000" y="17800.000000"
textLength="536.181102" font-size="666.653543" lengthAdjust="spacingAndGlyphs"
text-anchor="middle" opacity="0">3</text>
<g class="stroked-text"><desc>3</desc>
<path d="M34433 17276
L34742 17276
L34576 17466
L34647 17466
L34695 17490
L34719 17514
L34742 17561
L34742 17680
L34719 17728
L34695 17752
L34647 17776
L34504 17776
L34457 17752
L34433 17728
" />
</g><path d="M36100 20400
L36100 21900
" />
<g transform="rotate(-90.000000 36100.000000 20350.000000)">
<text x="36100.000000" y="20600.000000"
textLength="1107.637795" font-size="666.653543" lengthAdjust="spacingAndGlyphs"
text-anchor="start" opacity="0">V-</text>
</g>
<g class="stroked-text"><desc>V-</desc>
<path d="M35826 20272
L36326 20105
L35826 19939
" />
<path d="M36135 19772
L36135 19391
" />
</g><g transform="rotate(-90.000000 36000.000000 21150.000000)">
<text x="36000.000000" y="21150.000000"
textLength="536.181102" font-size="666.653543" lengthAdjust="spacingAndGlyphs"
text-anchor="middle" opacity="0">4</text>
</g>
<g class="stroked-text"><desc>4</desc>
<path d="M35642 21054
L35976 21054
" />
<path d="M35452 21173
L35809 21292
L35809 20983
" />
</g><path d="M39100 18900
L40100 18900
" />
<text x="39600.000000" y="18800.000000"
textLength="536.181102" font-size="666.653543" lengthAdjust="spacingAndGlyphs"
text-anchor="middle" opacity="0">6</text>
<g class="stroked-text"><desc>6</desc>
<path d="M39695 18276
L39600 18276
L39552 18300
L39528 18323
L39480 18395
L39457 18490
L39457 18680
L39480 18728
L39504 18752
L39552 18776
L39647 18776
L39695 18752
L39719 18728
L39742 18680
L39742 18561
L39719 18514
L39695 18490
L39647 18466
L39552 18466
L39504 18490
L39480 18514
L39457 18561
" />
</g><path d="M36100 17400
L36100 15900
" />
<g transform="rotate(-90.000000 36100.000000 17450.000000)">
<text x="36100.000000" y="17700.000000"
textLength="1107.637795" font-size="666.653543" lengthAdjust="spacingAndGlyphs"
text-anchor="end" opacity="0">V+</text>
</g>
<g class="stroked-text"><desc>V+</desc>
<path d="M35826 18480
L36326 18313
L35826 18146
" />
<path d="M36135 17980
L36135 17599
" />
<path d="M36326 17789
L35945 17789
" />
</g><g transform="rotate(-90.000000 36000.000000 16650.000000)">
<text x="36000.000000" y="16650.000000"
textLength="536.181102" font-size="666.653543" lengthAdjust="spacingAndGlyphs"
text-anchor="middle" opacity="0">7</text>
</g>
<g class="stroked-text"><desc>7</desc>
<path d="M35476 16816
L35476 16483
L35976 16697
" />
</g><path d="M38100 19400
L38100 21900
" />
<g transform="rotate(-90.000000 38100.000000 19350.000000)">
<text x="38100.000000" y="19450.000000"
textLength="631.417323" font-size="266.653543" lengthAdjust="spacingAndGlyphs"
text-anchor="start" opacity="0">VOS</text>
</g>
<g class="stroked-text"><desc>VOS</desc>
<path d="M37990 19300
L38190 19234
L37990 19167
" />
<path d="M37990 19062
L37990 19024
L38000 19005
L38019 18986
L38057 18977
L38123 18977
L38161 18986
L38180 19005
L38190 19024
L38190 19062
L38180 19081
L38161 19100
L38123 19110
L38057 19110
L38019 19100
L38000 19081
L37990 19062
" />
<path d="M38180 18900
L38190 18872
L38190 18824
L38180 18805
L38171 18796
L38152 18786
L38133 18786
L38114 18796
L38104 18805
L38095 18824
L38085 18862
L38076 18881
L38066 18891
L38047 18900
L38028 18900
L38009 18891
L38000 18881
L37990 18862
L37990 18815
L38000 18786
" />
</g><g transform="rotate(-90.000000 38000.000000 20650.000000)">
<text x="38000.000000" y="20650.000000"
textLength="536.181102" font-size="666.653543" lengthAdjust="spacingAndGlyphs"
text-anchor="middle" opacity="0">8</text>
</g>
<g class="stroked-text"><desc>8</desc>
<path d="M37690 20697
L37666 20745
L37642 20769
L37595 20792
L37571 20792
L37523 20769
L37500 20745
L37476 20697
L37476 20602
L37500 20554
L37523 20530
L37571 20507
L37595 20507
L37642 20530
L37666 20554
L37690 20602
L37690 20697
L37714 20745
L37738 20769
L37785 20792
L37880 20792
L37928 20769
L37952 20745
L37976 20697
L37976 20602
L37952 20554
L37928 20530
L37880 20507
L37785 20507
L37738 20530
L37714 20554
L37690 20602
" />
</g><text x="37900.000000" y="17750.000000"
textLength="1060.000000" font-size="666.653543" lengthAdjust="spacingAndGlyphs"
text-anchor="middle" opacity="0">U2</text>
<g class="stroked-text"><desc>U2</desc>
<path d="M37519 17226
L37519 17630
L37542 17678
L37566 17702
L37614 17726
L37709 17726
L37757 17702
L37780 17678
L37804 17630
L37804 17226
" />
<path d="M38019 17273
L38042 17250
L38090 17226
L38209 17226
L38257 17250
L38280 17273
L38304 17321
L38304 17369
L38280 17440
L37995 17726
L38304 17726
" />
</g><text x="36500.000000" y="19150.000000"
textLength="2036.181102" font-size="666.653543" lengthAdjust="spacingAndGlyphs"
text-anchor="middle" opacity="0">OP07</text>
<g class="stroked-text"><desc>OP07</desc>
<path d="M35726 18626
L35821 18626
L35869 18650
L35916 18697
L35940 18792
L35940 18959
L35916 19054
L35869 19102
L35821 19126
L35726 19126
L35678 19102
L35630 19054
L35607 18959
L35607 18792
L35630 18697
L35678 18650
L35726 18626
" />
<path d="M36154 19126
L36154 18626
L36345 18626
L36392 18650
L36416 18673
L36440 18721
L36440 18792
L36416 18840
L36392 18864
L36345 18888
L36154 18888
" />
<path d="M36750 18626
L36797 18626
L36845 18650
L36869 18673
L36892 18721
L36916 18816
L36916 18935
L36892 19030
L36869 19078
L36845 19102
L36797 19126
L36750 19126
L36702 19102
L36678 19078
L36654 19030
L36630 18935
L36630 18816
L36654 18721
L36678 18673
L36702 18650
L36750 18626
" />
<path d="M37083 18626
L37416 18626
L37202 19126
" />
</g></g>
</g>
<g style="fill:#000000; fill-opacity:0.0; 
stroke:#000000; stroke-width:60.000000; stroke-opacity:1; 
stroke-linecap:round; stroke-linejoin:round;">
<g >
</g>
<g style="fill:#000000; fill-opacity:0.0; 
stroke:#000000; stroke-width:100.000000; stroke-opacity:1; 
stroke-linecap:round; stroke-linejoin:round;">
<path style="fill:#000000; fill-opacity:0.0; 
stroke:#000000; stroke-width:100.000000; stroke-opacity:1; 
stroke-linecap:round; stroke-linejoin:round;fill:none"
d="M 46200.000000,21600.000000
50200.000000,19600.000000
46200.000000,17600.000000
Z" /> 
</g>
<g style="fill:#000000; fill-opacity:0.0; 
stroke:#000000; stroke-width:60.000000; stroke-opacity:1; 
stroke-linecap:round; stroke-linejoin:round;">
<path d="M50200 19600
L51200 19600
" />
<text x="50700.000000" y="19500.000000"
textLength="536.181102" font-size="666.653543" lengthAdjust="spacingAndGlyphs"
text-anchor="middle" opacity="0">1</text>
<g class="stroked-text"><desc>1</desc>
<path d="M50842 19476
L50557 19476
" />
<path d="M50700 19476
L50700 18976
L50652 19047
L50604 19095
L50557 19119
" />
</g><path d="M46200 18600
L45200 18600
" />
<text x="46250.000000" y="18850.000000"
textLength="679.055118" font-size="666.653543" lengthAdjust="spacingAndGlyphs"
text-anchor="start" opacity="0">-</text>
<g class="stroked-text"><desc>-</desc>
<path d="M46399 18635
L46780 18635
" />
</g><text x="45700.000000" y="18500.000000"
textLength="536.181102" font-size="666.653543" lengthAdjust="spacingAndGlyphs"
text-anchor="middle" opacity="0">2</text>
<g class="stroked-text"><desc>2</desc>
<path d="M45557 18023
L45580 18000
L45628 17976
L45747 17976
L45795 18000
L45819 18023
L45842 18071
L45842 18119
L45819 18190
L45533 18476
L45842 18476
" />
</g><path d="M46200 20600
L45200 20600
" />
<text x="46250.000000" y="20850.000000"
textLength="679.055118" font-size="666.653543" lengthAdjust="spacingAndGlyphs"
text-anchor="start" opacity="0">+</text>
<g class="stroked-text"><desc>+</desc>
<path d="M46399 20635
L46780 20635
" />
<path d="M46589 20826
L46589 20445
" />
</g><text x="45700.000000" y="20500.000000"
textLength="536.181102" font-size="666.653543" lengthAdjust="spacingAndGlyphs"
text-anchor="middle" opacity="0">3</text>
<g class="stroked-text"><desc>3</desc>
<path d="M45533 19976
L45842 19976
L45676 20166
L45747 20166
L45795 20190
L45819 20214
L45842 20261
L45842 20380
L45819 20428
L45795 20452
L45747 20476
L45604 20476
L45557 20452
L45533 20428
" />
</g><text x="48600.000000" y="21549.960630"
textLength="1488.582677" font-size="666.653543" lengthAdjust="spacingAndGlyphs"
text-anchor="middle" opacity="0">U4A</text>
<g class="stroked-text"><desc>U4A</desc>
<path d="M48004 21026
L48004 21430
L48028 21478
L48052 21502
L48100 21526
L48195 21526
L48242 21502
L48266 21478
L48290 21430
L48290 21026
" />
<path d="M48742 21192
L48742 21526
" />
<path d="M48623 21002
L48504 21359
L48814 21359
" />
<path d="M48980 21383
L49219 21383
" />
<path d="M48933 21526
L49100 21026
L49266 21526
" />
</g><text x="47700.000000" y="20049.960630"
textLength="2464.763780" font-size="666.653543" lengthAdjust="spacingAndGlyphs"
text-anchor="middle" opacity="0">LM324</text>
<g class="stroked-text"><desc>LM324</desc>
<path d="M46854 20026
L46616 20026
L46616 19526
" />
<path d="M47021 20026
L47021 19526
L47188 19883
L47354 19526
L47354 20026
" />
<path d="M47545 19526
L47854 19526
L47688 19716
L47759 19716
L47807 19740
L47830 19764
L47854 19811
L47854 19930
L47830 19978
L47807 20002
L47759 20026
L47616 20026
L47569 20002
L47545 19978
" />
<path d="M48045 19573
L48069 19549
L48116 19526
L48235 19526
L48283 19549
L48307 19573
L48330 19621
L48330 19668
L48307 19740
L48021 20026
L48330 20026
" />
<path d="M48759 19692
L48759 20026
" />
<path d="M48640 19502
L48521 19859
L48830 19859
" />
</g></g>
</g>
<g style="fill:#000000; fill-opacity:0.0; 
stroke:#000000; stroke-width:62.519685; stroke-opacity:1; 
stroke-linecap:round; stroke-linejoin:round;">
</g>
<g style="fill:#000000; fill-opacity:0.0; 
stroke:#000000; stroke-width:60.000000; stroke-opacity:1; 
stroke-linecap:round; stroke-linejoin:round;">
<text x="52700.000000" y="9362.480315"
textLength="6583.818898" font-size="666.653543" lengthAdjust="spacingAndGlyphs"
text-anchor="end" opacity="0">Squaring Block A</text>
<g class="stroked-text"><desc>Squaring Block A</desc>
<path d="M46241 9314
L46312 9338
L46431 9338
L46479 9314
L46503 9291
L46527 9243
L46527 9195
L46503 9148
L46479 9124
L46431 9100
L46336 9076
L46289 9052
L46265 9029
L46241 8981
L46241 8933
L46265 8886
L46289 8862
L46336 8838
L46455 8838
L46527 8862
" />
<path d="M46955 9005
L46955 9505
" />
<path d="M46955 9314
L46908 9338
L46812 9338
L46765 9314
L46741 9291
L46717 9243
L46717 9100
L46741 9052
L46765 9029
L46812 9005
L46908 9005
L46955 9029
" />
<path d="M47408 9005
L47408 9338
" />
<path d="M47193 9005
L47193 9267
L47217 9314
L47265 9338
L47336 9338
L47384 9314
L47408 9291
" />
<path d="M47860 9338
L47860 9076
L47836 9029
L47789 9005
L47693 9005
L47646 9029
" />
<path d="M47860 9314
L47812 9338
L47693 9338
L47646 9314
L47622 9267
L47622 9219
L47646 9171
L47693 9148
L47812 9148
L47860 9124
" />
<path d="M48098 9338
L48098 9005
" />
<path d="M48098 9100
L48122 9052
L48146 9029
L48193 9005
L48241 9005
" />
<path d="M48408 9338
L48408 9005
" />
<path d="M48408 8838
L48384 8862
L48408 8886
L48431 8862
L48408 8838
L48408 8886
" />
<path d="M48646 9005
L48646 9338
" />
<path d="M48646 9052
L48670 9029
L48717 9005
L48789 9005
L48836 9029
L48860 9076
L48860 9338
" />
<path d="M49312 9005
L49312 9410
L49289 9457
L49265 9481
L49217 9505
L49146 9505
L49098 9481
" />
<path d="M49312 9314
L49265 9338
L49170 9338
L49122 9314
L49098 9291
L49074 9243
L49074 9100
L49098 9052
L49122 9029
L49170 9005
L49265 9005
L49312 9029
" />
<path d="M50098 9076
L50170 9100
L50193 9124
L50217 9171
L50217 9243
L50193 9291
L50170 9314
L50122 9338
L49931 9338
L49931 8838
L50098 8838
L50146 8862
L50170 8886
L50193 8933
L50193 8981
L50170 9029
L50146 9052
L50098 9076
L49931 9076
" />
<path d="M50503 9338
L50455 9314
L50431 9267
L50431 8838
" />
<path d="M50765 9338
L50717 9314
L50693 9291
L50670 9243
L50670 9100
L50693 9052
L50717 9029
L50765 9005
L50836 9005
L50884 9029
L50908 9052
L50931 9100
L50931 9243
L50908 9291
L50884 9314
L50836 9338
L50765 9338
" />
<path d="M51360 9314
L51312 9338
L51217 9338
L51170 9314
L51146 9291
L51122 9243
L51122 9100
L51146 9052
L51170 9029
L51217 9005
L51312 9005
L51360 9029
" />
<path d="M51574 9338
L51574 8838
" />
<path d="M51622 9148
L51765 9338
" />
<path d="M51765 9005
L51574 9195
" />
<path d="M52336 9195
L52574 9195
" />
<path d="M52289 9338
L52455 8838
L52622 9338
" />
</g></g>
<g style="fill:#000000; fill-opacity:0.0; 
stroke:#000000; stroke-width:60.000000; stroke-opacity:1; 
stroke-linecap:round; stroke-linejoin:round;stroke-dasharray:300.000000,300.000000;">
<path d="M53000 8400
L30900 8400
" />
</g>
<g style="fill:#000000; fill-opacity:0.0; 
stroke:#000000; stroke-width:60.000000; stroke-opacity:1; 
stroke-linecap:round; stroke-linejoin:round;">
</g>
<g style="fill:#000000; fill-opacity:0.0; 
stroke:#000000; stroke-width:60.000000; stroke-opacity:1; 
stroke-linecap:round; stroke-linejoin:round;stroke-dasharray:300.000000,300.000000;">
<path d="M30900 8400
L30900 29200
" />
</g>
<g style="fill:#000000; fill-opacity:0.0; 
stroke:#000000; stroke-width:60.000000; stroke-opacity:1; 
stroke-linecap:round; stroke-linejoin:round;">
</g>
<g style="fill:#000000; fill-opacity:0.0; 
stroke:#000000; stroke-width:60.000000; stroke-opacity:1; 
stroke-linecap:round; stroke-linejoin:round;stroke-dasharray:300.000000,300.000000;">
<path d="M53000 29200
L53000 8400
" />
</g>
<g style="fill:#000000; fill-opacity:0.0; 
stroke:#000000; stroke-width:60.000000; stroke-opacity:1; 
stroke-linecap:round; stroke-linejoin:round;">
</g>
<g style="fill:#000000; fill-opacity:0.0; 
stroke:#000000; stroke-width:60.000000; stroke-opacity:1; 
stroke-linecap:round; stroke-linejoin:round;stroke-dasharray:300.000000,300.000000;">
<path d="M30900 29200
L53000 29200
" />
</g>
<g style="fill:#000000; fill-opacity:0.0; 
stroke:#000000; stroke-width:60.000000; stroke-opacity:1; 
stroke-linecap:round; stroke-linejoin:round;">
<path d="M34100 17900
L29800 17900
" />
<path d="M36100 14500
L36100 15900
" />
<path d="M51200 19600
L54000 19600
" />
<path d="M48800 15100
L51200 15100
" />
<path d="M45200 15100
L45200 18600
" />
<path d="M43800 14500
L43800 18600
" />
<path d="M45800 15100
L45200 15100
" />
<path d="M51200 15100
L51200 19600
" />
<path d="M42900 14500
L43800 14500
" />
<path d="M36100 14500
L39900 14500
" />
<path d="M36100 23700
L39600 23700
" />
<path d="M40100 21500
L40100 18900
" />
<path d="M34100 21500
L40100 21500
" />
<path d="M42600 23700
L43800 23700
" />
<path d="M43800 23700
L43800 20600
" />
<path d="M34100 21500
L34100 21900
" />
<path d="M43800 18600
L45200 18600
" />
<path d="M43800 20600
L45200 20600
" />
<path d="M36100 21900
L36100 23700
" />
<path d="M34100 19900
L34100 21500
" />
<path d="M37860 21660
L38340 22140
" />
<path d="M38340 21660
L37860 22140
" />
<path d="M36860 21660
L37340 22140
" />
<path d="M37340 21660
L36860 22140
" />
</g>
<g style="fill:#000000; fill-opacity:1.0; 
stroke:#000000; stroke-width:60.000000; stroke-opacity:1; 
stroke-linecap:round; stroke-linejoin:round;">
<circle cx="36100.000000" cy="14500.000000" r="180.000000" /> 
<circle cx="45200.000000" cy="18600.000000" r="180.000000" /> 
<circle cx="51200.000000" cy="19600.000000" r="180.000000" /> 
<circle cx="36100.000000" cy="23700.000000" r="180.000000" /> 
<circle cx="34100.000000" cy="21500.000000" r="180.000000" /> 
</g> 
</svg>
