<?xml version="1.0" encoding="UTF-8" standalone="no"?>
<svg
   xmlns:dc="http://purl.org/dc/elements/1.1/"
   xmlns:cc="http://creativecommons.org/ns#"
   xmlns:rdf="http://www.w3.org/1999/02/22-rdf-syntax-ns#"
   xmlns:svg="http://www.w3.org/2000/svg"
   xmlns="http://www.w3.org/2000/svg"
   xmlns:sodipodi="http://sodipodi.sourceforge.net/DTD/sodipodi-0.dtd"
   xmlns:inkscape="http://www.inkscape.org/namespaces/inkscape"
   version="1.1"
   id="svg2"
   xml:space="preserve"
   width="614.66669"
   height="506.66666"
   viewBox="0 0 614.66669 506.66666"
   sodipodi:docname="fig2.eps"><metadata
     id="metadata8"><rdf:RDF><cc:Work
         rdf:about=""><dc:format>image/svg+xml</dc:format><dc:type
           rdf:resource="http://purl.org/dc/dcmitype/StillImage" /></cc:Work></rdf:RDF></metadata><defs
     id="defs6" /><sodipodi:namedview
     pagecolor="#ffffff"
     bordercolor="#666666"
     borderopacity="1"
     objecttolerance="10"
     gridtolerance="10"
     guidetolerance="10"
     inkscape:pageopacity="0"
     inkscape:pageshadow="2"
     inkscape:window-width="640"
     inkscape:window-height="480"
     id="namedview4" /><g
     id="g10"
     inkscape:groupmode="layer"
     inkscape:label="ink_ext_XXXXXX"
     transform="matrix(1.3333333,0,0,-1.3333333,0,506.66667)"><g
       id="g12"
       transform="scale(0.1)"><path
         d="m 744.301,7.42188 h 3107.15 V 2954.6919 H 744.301 Z"
         style="fill:#ffffff;fill-opacity:1;fill-rule:evenodd;stroke:none"
         id="path14" /><path
         d="m 744.301,7.42188 h 3107.15 V 2954.6919 H 744.301 Z"
         style="fill:none;stroke:#000000;stroke-width:2.45197;stroke-linecap:round;stroke-linejoin:round;stroke-miterlimit:4;stroke-dasharray:none;stroke-opacity:1"
         id="path16" /><path
         d="M 85.1992,2667.3 H 650.621"
         style="fill:none;stroke:#000000;stroke-width:7.8463;stroke-linecap:round;stroke-linejoin:round;stroke-miterlimit:4;stroke-dasharray:none;stroke-opacity:1"
         id="path18" /><path
         d="m 641.801,2701.13 102.5,-33.83 -102.5,-34.33 z"
         style="fill:#000000;fill-opacity:1;fill-rule:evenodd;stroke:none"
         id="path20" /><path
         d="M 85.1992,2290.7 H 650.621"
         style="fill:none;stroke:#000000;stroke-width:7.8463;stroke-linecap:round;stroke-linejoin:round;stroke-miterlimit:4;stroke-dasharray:none;stroke-opacity:1"
         id="path22" /><path
         d="m 641.801,2324.53 102.5,-33.83 -102.5,-34.33 z"
         style="fill:#000000;fill-opacity:1;fill-rule:evenodd;stroke:none"
         id="path24" /><path
         d="M 85.1992,548.832 H 650.621"
         style="fill:none;stroke:#000000;stroke-width:7.8463;stroke-linecap:round;stroke-linejoin:round;stroke-miterlimit:4;stroke-dasharray:none;stroke-opacity:1"
         id="path26" /><path
         d="m 641.801,582.66 102.5,-33.828 -102.5,-34.344 z"
         style="fill:#000000;fill-opacity:1;fill-rule:evenodd;stroke:none"
         id="path28" /><path
         d="M 1481.84,3613.79 V 3048.83"
         style="fill:none;stroke:#000000;stroke-width:7.8463;stroke-linecap:round;stroke-linejoin:round;stroke-miterlimit:4;stroke-dasharray:none;stroke-opacity:1"
         id="path30" /><path
         d="m 1516.17,3057.19 -34.33,-102.5 -33.83,102.5 z"
         style="fill:#000000;fill-opacity:1;fill-rule:evenodd;stroke:none"
         id="path32" /><path
         d="M 1168.01,3613.79 V 3048.83"
         style="fill:none;stroke:#000000;stroke-width:7.8463;stroke-linecap:round;stroke-linejoin:round;stroke-miterlimit:4;stroke-dasharray:none;stroke-opacity:1"
         id="path34" /><path
         d="m 1202.3,3057.19 -34.29,-102.5 -33.87,102.5 z"
         style="fill:#000000;fill-opacity:1;fill-rule:evenodd;stroke:none"
         id="path36" /><path
         d="M 3302.19,3613.79 V 3048.83"
         style="fill:none;stroke:#000000;stroke-width:7.8463;stroke-linecap:round;stroke-linejoin:round;stroke-miterlimit:4;stroke-dasharray:none;stroke-opacity:1"
         id="path38" /><path
         d="m 3336.52,3057.19 -34.33,-102.5 -33.83,102.5 z"
         style="fill:#000000;fill-opacity:1;fill-rule:evenodd;stroke:none"
         id="path40" /><g
         id="g42"
         transform="scale(10)"><text
           transform="matrix(0,1,1,0,9.1457,114.565)"
           style="font-variant:normal;font-weight:normal;font-size:12.5625px;font-family:Arial;-inkscape-font-specification:ArialMT;writing-mode:lr-tb;fill:#000000;fill-opacity:1;fill-rule:nonzero;stroke:none"
           id="text46"><tspan
             x="0 9.0701246 16.054874 25.125 28.617374 35.602123 39.094501 42.586876 53.051437 60.036186 63.528561 67.711876 70.500748 76.781998 79.583435"
             y="0"
             sodipodi:role="line"
             id="tspan44">Row of Matrix A</tspan></text><text
           transform="matrix(1,0,0,-1,171.332,370.854)"
           style="font-variant:normal;font-weight:normal;font-size:12.5625px;font-family:Arial;-inkscape-font-specification:ArialMT;writing-mode:lr-tb;fill:#000000;fill-opacity:1;fill-rule:nonzero;stroke:none"
           id="text50"><tspan
             x="0 9.0701246 16.054874 18.84375 25.828501 36.293064 43.277813 46.770187 53.754936 57.247311 60.739689 71.204247 78.189003 81.681374 85.864685 88.653564 94.934814 98.427185"
             y="0"
             sodipodi:role="line"
             id="tspan48">Column of Matrix B</tspan></text><text
           transform="matrix(0,1,1,0,37.3926,96.6273)"
           style="font-variant:normal;font-weight:normal;font-size:12.5625px;font-family:Arial;-inkscape-font-specification:ArialMT;writing-mode:lr-tb;fill:#000000;fill-opacity:1;fill-rule:nonzero;stroke:none"
           id="text54"><tspan
             x="0 3.4923749 6.9847498 10.477125 13.9695 17.461876 20.95425 24.446625 27.938999 31.431376 34.923752 38.416126 41.908501 48.893063 52.385437 55.877811"
             y="0"
             sodipodi:role="line"
             id="tspan52">. . . . . . .. .</tspan></text><text
           transform="matrix(1,0,0,-1,228.102,326.13)"
           style="font-variant:normal;font-weight:normal;font-size:12.5625px;font-family:Arial;-inkscape-font-specification:ArialMT;writing-mode:lr-tb;fill:#000000;fill-opacity:1;fill-rule:nonzero;stroke:none"
           id="text58"><tspan
             x="0 3.4923749 6.9847498 10.477125 13.9695 17.461876 20.95425 24.446625 27.938999 31.431376 34.923752 38.416126 41.908501 45.400875 48.89325 52.385624 55.877998"
             y="0"
             sodipodi:role="line"
             id="tspan56">. . . . . . . . .</tspan></text></g><path
         d="m 3851.45,1631.6 h 659.57"
         style="fill:none;stroke:#000000;stroke-width:7.8463;stroke-linecap:round;stroke-linejoin:round;stroke-miterlimit:4;stroke-dasharray:none;stroke-opacity:1"
         id="path60" /><path
         d="m 4502.19,1665.43 102.5,-33.83 -102.5,-34.33 z"
         style="fill:#000000;fill-opacity:1;fill-rule:evenodd;stroke:none"
         id="path62" /><path
         d="m 4045.62,1556.09 h 365.348 v 150.551 H 4045.62 Z"
         style="fill:#ffffff;fill-opacity:1;fill-rule:evenodd;stroke:none"
         id="path64" /><g
         id="g66"
         transform="scale(10)"><text
           transform="matrix(1,0,0,-1,404.94,159.004)"
           style="font-variant:normal;font-weight:normal;font-size:12.5625px;font-family:Arial;-inkscape-font-specification:ArialMT;writing-mode:lr-tb;fill:#000000;fill-opacity:1;fill-rule:nonzero;stroke:none"
           id="text70"><tspan
             x="0 9.7736254 16.758375 20.25075 27.2355 34.220249"
             y="0"
             sodipodi:role="line"
             id="tspan68">Output</tspan></text></g><path
         d="m 1297.46,2096.99 h 659.098 v 564.922 H 1297.46 Z"
         style="fill:#ffffff;fill-opacity:1;fill-rule:evenodd;stroke:none"
         id="path72" /><path
         d="m 1297.46,2096.99 h 659.098 v 564.922 H 1297.46 Z"
         style="fill:none;stroke:#000000;stroke-width:2.45197;stroke-linecap:round;stroke-linejoin:round;stroke-miterlimit:4;stroke-dasharray:none;stroke-opacity:1"
         id="path74" /><g
         id="g76"
         transform="scale(10)"><text
           transform="matrix(1,0,0,-1,138.989,240.719)"
           style="font-variant:normal;font-weight:normal;font-size:10.2188px;font-family:Arial;-inkscape-font-specification:ArialMT;writing-mode:lr-tb;fill:#000000;fill-opacity:1;fill-rule:nonzero;stroke:none"
           id="text82"><tspan
             x="0 8.5122604 14.193913 16.462486 19.303312 21.571886 27.25354 29.522114 34.631512 36.900085 42.581741 48.263393"
             y="0"
             sodipodi:role="line"
             id="tspan78">Multiplying </tspan><tspan
             x="16.308599 23.686573 29.368227 31.636801"
             y="12.5539"
             sodipodi:role="line"
             id="tspan80">Cell</tspan></text></g><path
         d="m 1297.46,1343.75 h 659.098 v 564.922 H 1297.46 Z"
         style="fill:#ffffff;fill-opacity:1;fill-rule:evenodd;stroke:none"
         id="path84" /><path
         d="m 1297.46,1343.75 h 659.098 v 564.922 H 1297.46 Z"
         style="fill:none;stroke:#000000;stroke-width:2.45197;stroke-linecap:round;stroke-linejoin:round;stroke-miterlimit:4;stroke-dasharray:none;stroke-opacity:1"
         id="path86" /><g
         id="g88"
         transform="scale(10)"><text
           transform="matrix(1,0,0,-1,138.989,165.395)"
           style="font-variant:normal;font-weight:normal;font-size:10.2188px;font-family:Arial;-inkscape-font-specification:ArialMT;writing-mode:lr-tb;fill:#000000;fill-opacity:1;fill-rule:nonzero;stroke:none"
           id="text94"><tspan
             x="0 8.5122604 14.193913 16.462486 19.303312 21.571886 27.25354 29.522114 34.631512 36.900085 42.581741 48.263393"
             y="0"
             sodipodi:role="line"
             id="tspan90">Multiplying </tspan><tspan
             x="16.308599 23.686573 29.368227 31.636801"
             y="12.5543"
             sodipodi:role="line"
             id="tspan92">Cell</tspan></text></g><path
         d="m 1297.46,119.73 h 659.098 V 684.648 H 1297.46 Z"
         style="fill:#ffffff;fill-opacity:1;fill-rule:evenodd;stroke:none"
         id="path96" /><path
         d="m 1297.46,119.73 h 659.098 V 684.648 H 1297.46 Z"
         style="fill:none;stroke:#000000;stroke-width:2.45197;stroke-linecap:round;stroke-linejoin:round;stroke-miterlimit:4;stroke-dasharray:none;stroke-opacity:1"
         id="path98" /><g
         id="g100"
         transform="scale(10)"><text
           transform="matrix(1,0,0,-1,138.989,42.9926)"
           style="font-variant:normal;font-weight:normal;font-size:10.2188px;font-family:Arial;-inkscape-font-specification:ArialMT;writing-mode:lr-tb;fill:#000000;fill-opacity:1;fill-rule:nonzero;stroke:none"
           id="text106"><tspan
             x="0 8.5122604 14.193913 16.462486 19.303312 21.571886 27.25354 29.522114 34.631512 36.900085 42.581741 48.263393"
             y="0"
             sodipodi:role="line"
             id="tspan102">Multiplying </tspan><tspan
             x="16.308599 23.686573 29.368227 31.636801"
             y="12.5543"
             sodipodi:role="line"
             id="tspan104">Cell</tspan></text></g><path
         d="m 2156.64,1349.14 h 659.059 v 564.918 H 2156.64 Z"
         style="fill:#ffffff;fill-opacity:1;fill-rule:evenodd;stroke:none"
         id="path108" /><path
         d="m 2156.64,1349.14 h 659.059 v 564.918 H 2156.64 Z"
         style="fill:none;stroke:#000000;stroke-width:2.45197;stroke-linecap:round;stroke-linejoin:round;stroke-miterlimit:4;stroke-dasharray:none;stroke-opacity:1"
         id="path110" /><g
         id="g112"
         transform="scale(10)"><text
           transform="matrix(1,0,0,-1,236.057,159.632)"
           style="font-variant:normal;font-weight:normal;font-size:10.2188px;font-family:Arial;-inkscape-font-specification:ArialMT;writing-mode:lr-tb;fill:#000000;fill-opacity:1;fill-rule:nonzero;stroke:none"
           id="text116"><tspan
             x="0 6.8159394 12.497592 18.179245 23.860897"
             y="0"
             sodipodi:role="line"
             id="tspan114">Adder</tspan></text></g><path
         d="m 3004.02,1349.14 h 659.102 v 564.918 H 3004.02 Z"
         style="fill:#ffffff;fill-opacity:1;fill-rule:evenodd;stroke:none"
         id="path118" /><path
         d="m 3004.02,1349.14 h 659.102 v 564.918 H 3004.02 Z"
         style="fill:none;stroke:#000000;stroke-width:2.45197;stroke-linecap:round;stroke-linejoin:round;stroke-miterlimit:4;stroke-dasharray:none;stroke-opacity:1"
         id="path120" /><g
         id="g122"
         transform="scale(10)"><text
           transform="matrix(1,0,0,-1,317.497,172.186)"
           style="font-variant:normal;font-weight:normal;font-size:10.2188px;font-family:Arial;-inkscape-font-specification:ArialMT;writing-mode:lr-tb;fill:#000000;fill-opacity:1;fill-rule:nonzero;stroke:none"
           id="text130"><tspan
             x="0 6.2540231 11.935676 14.204249 17.045076 22.726728 28.408382 34.090034"
             y="0"
             sodipodi:role="line"
             id="tspan124">Voltage </tspan><tspan
             x="1.51719 8.3331299 13.44253 19.124182 21.392756 23.661329 29.342983 35.024635"
             y="12.5539"
             sodipodi:role="line"
             id="tspan126">Scaling </tspan><tspan
             x="2.0511739 9.4291477 15.110801 20.2202 22.488773 27.598173"
             y="25.1082"
             sodipodi:role="line"
             id="tspan128">Device</tspan></text></g><path
         d="m 2815.7,1631.6 h 94.65"
         style="fill:none;stroke:#000000;stroke-width:7.8463;stroke-linecap:round;stroke-linejoin:round;stroke-miterlimit:4;stroke-dasharray:none;stroke-opacity:1"
         id="path132" /><path
         d="m 2901.52,1665.43 102.5,-33.83 -102.5,-34.33 z"
         style="fill:#000000;fill-opacity:1;fill-rule:evenodd;stroke:none"
         id="path134" /><g
         id="g136"
         transform="scale(10)"><text
           transform="matrix(0,1,1,0,166.857,84.4531)"
           style="font-variant:normal;font-weight:normal;font-size:12.5625px;font-family:Arial;-inkscape-font-specification:ArialMT;writing-mode:lr-tb;fill:#000000;fill-opacity:1;fill-rule:nonzero;stroke:none"
           id="text140"><tspan
             x="0 3.4923749 6.9847498 10.477125 13.9695 17.461876 20.95425 24.446625 27.938999 31.431376 34.923752"
             y="0"
             sodipodi:role="line"
             id="tspan138">. . . . . .</tspan></text></g><path
         d="m 1481.84,2954.69 v -95.16 H 979.691 v -1275 h 224.099"
         style="fill:none;stroke:#000000;stroke-width:7.8463;stroke-linecap:round;stroke-linejoin:round;stroke-miterlimit:4;stroke-dasharray:none;stroke-opacity:1"
         id="path142" /><path
         d="m 1194.96,1618.36 102.5,-33.83 -102.5,-34.33 z"
         style="fill:#000000;fill-opacity:1;fill-rule:evenodd;stroke:none"
         id="path144" /><path
         d="M 3302.19,2954.69 V 2785 H 932.621 V 242.809"
         style="fill:none;stroke:#000000;stroke-width:7.8463;stroke-linecap:round;stroke-linejoin:round;stroke-miterlimit:4;stroke-dasharray:none;stroke-opacity:1"
         id="path146" /><path
         d="M 932.621,242.809 H 1203.79"
         style="fill:none;stroke:#000000;stroke-width:7.8463;stroke-linecap:round;stroke-linejoin:round;stroke-miterlimit:4;stroke-dasharray:none;stroke-opacity:1"
         id="path148" /><path
         d="m 1194.96,276.641 102.5,-33.832 -102.5,-34.329 z"
         style="fill:#000000;fill-opacity:1;fill-rule:evenodd;stroke:none"
         id="path150" /><path
         d="m 1168.01,2954.69 v -44.14 h -141.25 v -572.78 h 177.03"
         style="fill:none;stroke:#000000;stroke-width:7.8463;stroke-linecap:round;stroke-linejoin:round;stroke-miterlimit:4;stroke-dasharray:none;stroke-opacity:1"
         id="path152" /><path
         d="m 1194.96,2371.6 102.5,-33.83 -102.5,-34.33 z"
         style="fill:#000000;fill-opacity:1;fill-rule:evenodd;stroke:none"
         id="path154" /><path
         d="M 744.301,2667.3 H 857.578 V 2502.54 H 1203.79"
         style="fill:none;stroke:#000000;stroke-width:7.8463;stroke-linecap:round;stroke-linejoin:round;stroke-miterlimit:4;stroke-dasharray:none;stroke-opacity:1"
         id="path156" /><path
         d="m 1194.96,2536.37 102.5,-33.83 -102.5,-34.34 z"
         style="fill:#000000;fill-opacity:1;fill-rule:evenodd;stroke:none"
         id="path158" /><path
         d="m 744.301,2290.7 h 94.14 v -588.47 h 365.349"
         style="fill:none;stroke:#000000;stroke-width:7.8463;stroke-linecap:round;stroke-linejoin:round;stroke-miterlimit:4;stroke-dasharray:none;stroke-opacity:1"
         id="path160" /><path
         d="m 1194.96,1736.05 102.5,-33.82 -102.5,-34.34 z"
         style="fill:#000000;fill-opacity:1;fill-rule:evenodd;stroke:none"
         id="path162" /><path
         d="m 744.301,548.832 h 99.058 v -70.633 h 360.431"
         style="fill:none;stroke:#000000;stroke-width:7.8463;stroke-linecap:round;stroke-linejoin:round;stroke-miterlimit:4;stroke-dasharray:none;stroke-opacity:1"
         id="path164" /><path
         d="m 1194.96,512.031 102.5,-33.832 -102.5,-34.328 z"
         style="fill:#000000;fill-opacity:1;fill-rule:evenodd;stroke:none"
         id="path166" /><path
         d="m 1956.56,1626.21 106.41,2.93"
         style="fill:none;stroke:#000000;stroke-width:7.8463;stroke-linecap:round;stroke-linejoin:round;stroke-miterlimit:4;stroke-dasharray:none;stroke-opacity:1"
         id="path168" /><path
         d="m 2053.16,1662.97 103.48,-31.37 -101.52,-37.26 z"
         style="fill:#000000;fill-opacity:1;fill-rule:evenodd;stroke:none"
         id="path170" /><path
         d="m 1956.56,2379.45 h 66.68 V 1749.3 h 39.73"
         style="fill:none;stroke:#000000;stroke-width:7.8463;stroke-linecap:round;stroke-linejoin:round;stroke-miterlimit:4;stroke-dasharray:none;stroke-opacity:1"
         id="path172" /><path
         d="m 2054.14,1783.12 102.5,-33.82 -102.5,-34.34 z"
         style="fill:#000000;fill-opacity:1;fill-rule:evenodd;stroke:none"
         id="path174" /><path
         d="m 3663.12,1631.6 h 94.65"
         style="fill:none;stroke:#000000;stroke-width:7.8463;stroke-linecap:round;stroke-linejoin:round;stroke-miterlimit:4;stroke-dasharray:none;stroke-opacity:1"
         id="path176" /><path
         d="m 3748.95,1665.43 102.5,-33.83 -102.5,-34.33 z"
         style="fill:#000000;fill-opacity:1;fill-rule:evenodd;stroke:none"
         id="path178" /><path
         d="m 1956.56,402.191 h 77.97 V 1513.91 h 28.44"
         style="fill:none;stroke:#000000;stroke-width:7.8463;stroke-linecap:round;stroke-linejoin:round;stroke-miterlimit:4;stroke-dasharray:none;stroke-opacity:1"
         id="path180" /><path
         d="m 2054.14,1547.73 102.5,-33.82 -102.5,-34.34 z"
         style="fill:#000000;fill-opacity:1;fill-rule:evenodd;stroke:none"
         id="path182" /></g></g></svg>
