<?xml version="1.0" encoding="UTF-8" standalone="no"?>
<svg
   xmlns:dc="http://purl.org/dc/elements/1.1/"
   xmlns:cc="http://creativecommons.org/ns#"
   xmlns:rdf="http://www.w3.org/1999/02/22-rdf-syntax-ns#"
   xmlns:svg="http://www.w3.org/2000/svg"
   xmlns="http://www.w3.org/2000/svg"
   xmlns:sodipodi="http://sodipodi.sourceforge.net/DTD/sodipodi-0.dtd"
   xmlns:inkscape="http://www.inkscape.org/namespaces/inkscape"
   version="1.1"
   id="svg2"
   xml:space="preserve"
   width="1600"
   height="510.66666"
   viewBox="0 0 1600 510.66666"
   sodipodi:docname="plt1.eps"><metadata
     id="metadata8"><rdf:RDF><cc:Work
         rdf:about=""><dc:format>image/svg+xml</dc:format><dc:type
           rdf:resource="http://purl.org/dc/dcmitype/StillImage" /></cc:Work></rdf:RDF></metadata><defs
     id="defs6"><clipPath
       clipPathUnits="userSpaceOnUse"
       id="clipPath20"><path
         d="M 0,3825 H 12000 V 0 H 0 Z"
         id="path18" /></clipPath></defs><sodipodi:namedview
     pagecolor="#ffffff"
     bordercolor="#666666"
     borderopacity="1"
     objecttolerance="10"
     gridtolerance="10"
     guidetolerance="10"
     inkscape:pageopacity="0"
     inkscape:pageshadow="2"
     inkscape:window-width="640"
     inkscape:window-height="480"
     id="namedview4" /><g
     id="g10"
     inkscape:groupmode="layer"
     inkscape:label="ink_ext_XXXXXX"
     transform="matrix(1.3333333,0,0,-1.3333333,0,510.66667)"><g
       id="g12"
       transform="scale(0.1)"><g
         id="g14"><g
           id="g16"
           clip-path="url(#clipPath20)"><path
             d="M 0,0 H 12000 V 3825 H 0 Z"
             style="fill:#ffffff;fill-opacity:1;fill-rule:nonzero;stroke:none"
             id="path22" /></g></g><path
         d="M 0,0 H 12000 V 3825 H 0 Z"
         style="fill:#ffffff;fill-opacity:1;fill-rule:nonzero;stroke:none"
         id="path24" /><path
         d="m 1560,420 h 9300 V 3540 H 1560 Z"
         style="fill:#ffffff;fill-opacity:1;fill-rule:nonzero;stroke:none"
         id="path26" /><path
         d="M 1841.77,420 V 3540"
         style="fill:none;stroke:#dfdfdf;stroke-width:5.0025;stroke-linecap:butt;stroke-linejoin:round;stroke-miterlimit:10;stroke-dasharray:none;stroke-opacity:1"
         id="path28" /><path
         d="M 2727.82,420 V 3540"
         style="fill:none;stroke:#dfdfdf;stroke-width:5.0025;stroke-linecap:butt;stroke-linejoin:round;stroke-miterlimit:10;stroke-dasharray:none;stroke-opacity:1"
         id="path30" /><path
         d="M 3613.87,420 V 3540"
         style="fill:none;stroke:#dfdfdf;stroke-width:5.0025;stroke-linecap:butt;stroke-linejoin:round;stroke-miterlimit:10;stroke-dasharray:none;stroke-opacity:1"
         id="path32" /><path
         d="M 4499.92,420 V 3540"
         style="fill:none;stroke:#dfdfdf;stroke-width:5.0025;stroke-linecap:butt;stroke-linejoin:round;stroke-miterlimit:10;stroke-dasharray:none;stroke-opacity:1"
         id="path34" /><path
         d="M 5385.98,420 V 3540"
         style="fill:none;stroke:#dfdfdf;stroke-width:5.0025;stroke-linecap:butt;stroke-linejoin:round;stroke-miterlimit:10;stroke-dasharray:none;stroke-opacity:1"
         id="path36" /><path
         d="M 6272.03,420 V 3540"
         style="fill:none;stroke:#dfdfdf;stroke-width:5.0025;stroke-linecap:butt;stroke-linejoin:round;stroke-miterlimit:10;stroke-dasharray:none;stroke-opacity:1"
         id="path38" /><path
         d="M 7158.07,420 V 3540"
         style="fill:none;stroke:#dfdfdf;stroke-width:5.0025;stroke-linecap:butt;stroke-linejoin:round;stroke-miterlimit:10;stroke-dasharray:none;stroke-opacity:1"
         id="path40" /><path
         d="M 8044.13,420 V 3540"
         style="fill:none;stroke:#dfdfdf;stroke-width:5.0025;stroke-linecap:butt;stroke-linejoin:round;stroke-miterlimit:10;stroke-dasharray:none;stroke-opacity:1"
         id="path42" /><path
         d="M 8930.18,420 V 3540"
         style="fill:none;stroke:#dfdfdf;stroke-width:5.0025;stroke-linecap:butt;stroke-linejoin:round;stroke-miterlimit:10;stroke-dasharray:none;stroke-opacity:1"
         id="path44" /><path
         d="M 9816.23,420 V 3540"
         style="fill:none;stroke:#dfdfdf;stroke-width:5.0025;stroke-linecap:butt;stroke-linejoin:round;stroke-miterlimit:10;stroke-dasharray:none;stroke-opacity:1"
         id="path46" /><path
         d="M 10702.3,420 V 3540"
         style="fill:none;stroke:#dfdfdf;stroke-width:5.0025;stroke-linecap:butt;stroke-linejoin:round;stroke-miterlimit:10;stroke-dasharray:none;stroke-opacity:1"
         id="path48" /><path
         d="M 10860,601.957 H 1560"
         style="fill:none;stroke:#dfdfdf;stroke-width:5.0025;stroke-linecap:butt;stroke-linejoin:round;stroke-miterlimit:10;stroke-dasharray:none;stroke-opacity:1"
         id="path50" /><path
         d="M 10860,869.535 H 1560"
         style="fill:none;stroke:#dfdfdf;stroke-width:5.0025;stroke-linecap:butt;stroke-linejoin:round;stroke-miterlimit:10;stroke-dasharray:none;stroke-opacity:1"
         id="path52" /><path
         d="M 10860,1137.12 H 1560"
         style="fill:none;stroke:#dfdfdf;stroke-width:5.0025;stroke-linecap:butt;stroke-linejoin:round;stroke-miterlimit:10;stroke-dasharray:none;stroke-opacity:1"
         id="path54" /><path
         d="M 10860,1404.7 H 1560"
         style="fill:none;stroke:#dfdfdf;stroke-width:5.0025;stroke-linecap:butt;stroke-linejoin:round;stroke-miterlimit:10;stroke-dasharray:none;stroke-opacity:1"
         id="path56" /><path
         d="M 10860,1672.28 H 1560"
         style="fill:none;stroke:#dfdfdf;stroke-width:5.0025;stroke-linecap:butt;stroke-linejoin:round;stroke-miterlimit:10;stroke-dasharray:none;stroke-opacity:1"
         id="path58" /><path
         d="M 10860,1939.86 H 1560"
         style="fill:none;stroke:#dfdfdf;stroke-width:5.0025;stroke-linecap:butt;stroke-linejoin:round;stroke-miterlimit:10;stroke-dasharray:none;stroke-opacity:1"
         id="path60" /><path
         d="M 10860,2207.45 H 1560"
         style="fill:none;stroke:#dfdfdf;stroke-width:5.0025;stroke-linecap:butt;stroke-linejoin:round;stroke-miterlimit:10;stroke-dasharray:none;stroke-opacity:1"
         id="path62" /><path
         d="M 10860,2475.02 H 1560"
         style="fill:none;stroke:#dfdfdf;stroke-width:5.0025;stroke-linecap:butt;stroke-linejoin:round;stroke-miterlimit:10;stroke-dasharray:none;stroke-opacity:1"
         id="path64" /><path
         d="M 10860,2742.61 H 1560"
         style="fill:none;stroke:#dfdfdf;stroke-width:5.0025;stroke-linecap:butt;stroke-linejoin:round;stroke-miterlimit:10;stroke-dasharray:none;stroke-opacity:1"
         id="path66" /><path
         d="M 10860,3010.18 H 1560"
         style="fill:none;stroke:#dfdfdf;stroke-width:5.0025;stroke-linecap:butt;stroke-linejoin:round;stroke-miterlimit:10;stroke-dasharray:none;stroke-opacity:1"
         id="path68" /><path
         d="M 10860,3277.77 H 1560"
         style="fill:none;stroke:#dfdfdf;stroke-width:5.0025;stroke-linecap:butt;stroke-linejoin:round;stroke-miterlimit:10;stroke-dasharray:none;stroke-opacity:1"
         id="path70" /><path
         d="m 1560,420 h 9300"
         style="fill:none;stroke:#262626;stroke-width:5.0025;stroke-linecap:square;stroke-linejoin:round;stroke-miterlimit:10;stroke-dasharray:none;stroke-opacity:1"
         id="path72" /><path
         d="m 1560,3540 h 9300"
         style="fill:none;stroke:#262626;stroke-width:5.0025;stroke-linecap:square;stroke-linejoin:round;stroke-miterlimit:10;stroke-dasharray:none;stroke-opacity:1"
         id="path74" /><path
         d="m 1841.77,420 v 93"
         style="fill:none;stroke:#262626;stroke-width:5.0025;stroke-linecap:square;stroke-linejoin:round;stroke-miterlimit:10;stroke-dasharray:none;stroke-opacity:1"
         id="path76" /><path
         d="m 2727.82,420 v 93"
         style="fill:none;stroke:#262626;stroke-width:5.0025;stroke-linecap:square;stroke-linejoin:round;stroke-miterlimit:10;stroke-dasharray:none;stroke-opacity:1"
         id="path78" /><path
         d="m 3613.87,420 v 93"
         style="fill:none;stroke:#262626;stroke-width:5.0025;stroke-linecap:square;stroke-linejoin:round;stroke-miterlimit:10;stroke-dasharray:none;stroke-opacity:1"
         id="path80" /><path
         d="m 4499.92,420 v 93"
         style="fill:none;stroke:#262626;stroke-width:5.0025;stroke-linecap:square;stroke-linejoin:round;stroke-miterlimit:10;stroke-dasharray:none;stroke-opacity:1"
         id="path82" /><path
         d="m 5385.98,420 v 93"
         style="fill:none;stroke:#262626;stroke-width:5.0025;stroke-linecap:square;stroke-linejoin:round;stroke-miterlimit:10;stroke-dasharray:none;stroke-opacity:1"
         id="path84" /><path
         d="m 6272.03,420 v 93"
         style="fill:none;stroke:#262626;stroke-width:5.0025;stroke-linecap:square;stroke-linejoin:round;stroke-miterlimit:10;stroke-dasharray:none;stroke-opacity:1"
         id="path86" /><path
         d="m 7158.07,420 v 93"
         style="fill:none;stroke:#262626;stroke-width:5.0025;stroke-linecap:square;stroke-linejoin:round;stroke-miterlimit:10;stroke-dasharray:none;stroke-opacity:1"
         id="path88" /><path
         d="m 8044.13,420 v 93"
         style="fill:none;stroke:#262626;stroke-width:5.0025;stroke-linecap:square;stroke-linejoin:round;stroke-miterlimit:10;stroke-dasharray:none;stroke-opacity:1"
         id="path90" /><path
         d="m 8930.18,420 v 93"
         style="fill:none;stroke:#262626;stroke-width:5.0025;stroke-linecap:square;stroke-linejoin:round;stroke-miterlimit:10;stroke-dasharray:none;stroke-opacity:1"
         id="path92" /><path
         d="m 9816.23,420 v 93"
         style="fill:none;stroke:#262626;stroke-width:5.0025;stroke-linecap:square;stroke-linejoin:round;stroke-miterlimit:10;stroke-dasharray:none;stroke-opacity:1"
         id="path94" /><path
         d="m 10702.3,420 v 93"
         style="fill:none;stroke:#262626;stroke-width:5.0025;stroke-linecap:square;stroke-linejoin:round;stroke-miterlimit:10;stroke-dasharray:none;stroke-opacity:1"
         id="path96" /><path
         d="m 1841.77,3540 v -93"
         style="fill:none;stroke:#262626;stroke-width:5.0025;stroke-linecap:square;stroke-linejoin:round;stroke-miterlimit:10;stroke-dasharray:none;stroke-opacity:1"
         id="path98" /><path
         d="m 2727.82,3540 v -93"
         style="fill:none;stroke:#262626;stroke-width:5.0025;stroke-linecap:square;stroke-linejoin:round;stroke-miterlimit:10;stroke-dasharray:none;stroke-opacity:1"
         id="path100" /><path
         d="m 3613.87,3540 v -93"
         style="fill:none;stroke:#262626;stroke-width:5.0025;stroke-linecap:square;stroke-linejoin:round;stroke-miterlimit:10;stroke-dasharray:none;stroke-opacity:1"
         id="path102" /><path
         d="m 4499.92,3540 v -93"
         style="fill:none;stroke:#262626;stroke-width:5.0025;stroke-linecap:square;stroke-linejoin:round;stroke-miterlimit:10;stroke-dasharray:none;stroke-opacity:1"
         id="path104" /><path
         d="m 5385.98,3540 v -93"
         style="fill:none;stroke:#262626;stroke-width:5.0025;stroke-linecap:square;stroke-linejoin:round;stroke-miterlimit:10;stroke-dasharray:none;stroke-opacity:1"
         id="path106" /><path
         d="m 6272.03,3540 v -93"
         style="fill:none;stroke:#262626;stroke-width:5.0025;stroke-linecap:square;stroke-linejoin:round;stroke-miterlimit:10;stroke-dasharray:none;stroke-opacity:1"
         id="path108" /><path
         d="m 7158.07,3540 v -93"
         style="fill:none;stroke:#262626;stroke-width:5.0025;stroke-linecap:square;stroke-linejoin:round;stroke-miterlimit:10;stroke-dasharray:none;stroke-opacity:1"
         id="path110" /><path
         d="m 8044.13,3540 v -93"
         style="fill:none;stroke:#262626;stroke-width:5.0025;stroke-linecap:square;stroke-linejoin:round;stroke-miterlimit:10;stroke-dasharray:none;stroke-opacity:1"
         id="path112" /><path
         d="m 8930.18,3540 v -93"
         style="fill:none;stroke:#262626;stroke-width:5.0025;stroke-linecap:square;stroke-linejoin:round;stroke-miterlimit:10;stroke-dasharray:none;stroke-opacity:1"
         id="path114" /><path
         d="m 9816.23,3540 v -93"
         style="fill:none;stroke:#262626;stroke-width:5.0025;stroke-linecap:square;stroke-linejoin:round;stroke-miterlimit:10;stroke-dasharray:none;stroke-opacity:1"
         id="path116" /><path
         d="m 10702.3,3540 v -93"
         style="fill:none;stroke:#262626;stroke-width:5.0025;stroke-linecap:square;stroke-linejoin:round;stroke-miterlimit:10;stroke-dasharray:none;stroke-opacity:1"
         id="path118" /><g
         id="g120"
         transform="scale(10)"><text
           transform="matrix(1,0,0,-1,175.552,27.5)"
           style="font-variant:normal;font-weight:normal;font-size:9.99975px;font-family:Helvetica;-inkscape-font-specification:Helvetica;writing-mode:lr-tb;fill:#262626;fill-opacity:1;fill-rule:nonzero;stroke:none"
           id="text124"><tspan
             x="0 5.5598612 11.119722 88.605087 94.164948 99.724808 177.21017 182.77003 188.3299 265.81564 271.37552 276.93536 354.42075 359.98059 365.54047 443.02582 448.58569 454.14554 531.63092 537.1908 542.75061 620.23639 625.79626 631.35614 708.84149 714.40137 719.96118 797.44653 803.00641 808.56628 883.427 888.98688 894.54675 900.10657"
             y="0"
             sodipodi:role="line"
             id="tspan122">5005506006507007508008509009501000</tspan></text><text
           transform="matrix(1,0,0,-1,574.876,13)"
           style="font-variant:normal;font-weight:normal;font-size:11.0002px;font-family:Helvetica;-inkscape-font-specification:Helvetica;writing-mode:lr-tb;fill:#262626;fill-opacity:1;fill-rule:nonzero;stroke:none"
           id="text128"><tspan
             x="0 3.0580556 9.1741667 15.290278 21.406389 24.464445 27.522501 34.859634 40.975746 43.417789 46.475845 52.591957 58.708069 64.824181 67.882233 71.545303 80.708466 88.045601"
             y="0"
             sodipodi:role="line"
             id="tspan126">Input Voltage (mV)</tspan></text></g><path
         d="M 1560,420 V 3540"
         style="fill:none;stroke:#262626;stroke-width:5.0025;stroke-linecap:square;stroke-linejoin:round;stroke-miterlimit:10;stroke-dasharray:none;stroke-opacity:1"
         id="path130" /><path
         d="M 10860,420 V 3540"
         style="fill:none;stroke:#262626;stroke-width:5.0025;stroke-linecap:square;stroke-linejoin:round;stroke-miterlimit:10;stroke-dasharray:none;stroke-opacity:1"
         id="path132" /><path
         d="m 1560,601.957 h 93"
         style="fill:none;stroke:#262626;stroke-width:5.0025;stroke-linecap:square;stroke-linejoin:round;stroke-miterlimit:10;stroke-dasharray:none;stroke-opacity:1"
         id="path134" /><path
         d="m 1560,869.535 h 93"
         style="fill:none;stroke:#262626;stroke-width:5.0025;stroke-linecap:square;stroke-linejoin:round;stroke-miterlimit:10;stroke-dasharray:none;stroke-opacity:1"
         id="path136" /><path
         d="m 1560,1137.12 h 93"
         style="fill:none;stroke:#262626;stroke-width:5.0025;stroke-linecap:square;stroke-linejoin:round;stroke-miterlimit:10;stroke-dasharray:none;stroke-opacity:1"
         id="path138" /><path
         d="m 1560,1404.7 h 93"
         style="fill:none;stroke:#262626;stroke-width:5.0025;stroke-linecap:square;stroke-linejoin:round;stroke-miterlimit:10;stroke-dasharray:none;stroke-opacity:1"
         id="path140" /><path
         d="m 1560,1672.28 h 93"
         style="fill:none;stroke:#262626;stroke-width:5.0025;stroke-linecap:square;stroke-linejoin:round;stroke-miterlimit:10;stroke-dasharray:none;stroke-opacity:1"
         id="path142" /><path
         d="m 1560,1939.86 h 93"
         style="fill:none;stroke:#262626;stroke-width:5.0025;stroke-linecap:square;stroke-linejoin:round;stroke-miterlimit:10;stroke-dasharray:none;stroke-opacity:1"
         id="path144" /><path
         d="m 1560,2207.45 h 93"
         style="fill:none;stroke:#262626;stroke-width:5.0025;stroke-linecap:square;stroke-linejoin:round;stroke-miterlimit:10;stroke-dasharray:none;stroke-opacity:1"
         id="path146" /><path
         d="m 1560,2475.02 h 93"
         style="fill:none;stroke:#262626;stroke-width:5.0025;stroke-linecap:square;stroke-linejoin:round;stroke-miterlimit:10;stroke-dasharray:none;stroke-opacity:1"
         id="path148" /><path
         d="m 1560,2742.61 h 93"
         style="fill:none;stroke:#262626;stroke-width:5.0025;stroke-linecap:square;stroke-linejoin:round;stroke-miterlimit:10;stroke-dasharray:none;stroke-opacity:1"
         id="path150" /><path
         d="m 1560,3010.18 h 93"
         style="fill:none;stroke:#262626;stroke-width:5.0025;stroke-linecap:square;stroke-linejoin:round;stroke-miterlimit:10;stroke-dasharray:none;stroke-opacity:1"
         id="path152" /><path
         d="m 1560,3277.77 h 93"
         style="fill:none;stroke:#262626;stroke-width:5.0025;stroke-linecap:square;stroke-linejoin:round;stroke-miterlimit:10;stroke-dasharray:none;stroke-opacity:1"
         id="path154" /><path
         d="m 10860,601.957 h -93"
         style="fill:none;stroke:#262626;stroke-width:5.0025;stroke-linecap:square;stroke-linejoin:round;stroke-miterlimit:10;stroke-dasharray:none;stroke-opacity:1"
         id="path156" /><path
         d="m 10860,869.535 h -93"
         style="fill:none;stroke:#262626;stroke-width:5.0025;stroke-linecap:square;stroke-linejoin:round;stroke-miterlimit:10;stroke-dasharray:none;stroke-opacity:1"
         id="path158" /><path
         d="m 10860,1137.12 h -93"
         style="fill:none;stroke:#262626;stroke-width:5.0025;stroke-linecap:square;stroke-linejoin:round;stroke-miterlimit:10;stroke-dasharray:none;stroke-opacity:1"
         id="path160" /><path
         d="m 10860,1404.7 h -93"
         style="fill:none;stroke:#262626;stroke-width:5.0025;stroke-linecap:square;stroke-linejoin:round;stroke-miterlimit:10;stroke-dasharray:none;stroke-opacity:1"
         id="path162" /><path
         d="m 10860,1672.28 h -93"
         style="fill:none;stroke:#262626;stroke-width:5.0025;stroke-linecap:square;stroke-linejoin:round;stroke-miterlimit:10;stroke-dasharray:none;stroke-opacity:1"
         id="path164" /><path
         d="m 10860,1939.86 h -93"
         style="fill:none;stroke:#262626;stroke-width:5.0025;stroke-linecap:square;stroke-linejoin:round;stroke-miterlimit:10;stroke-dasharray:none;stroke-opacity:1"
         id="path166" /><path
         d="m 10860,2207.45 h -93"
         style="fill:none;stroke:#262626;stroke-width:5.0025;stroke-linecap:square;stroke-linejoin:round;stroke-miterlimit:10;stroke-dasharray:none;stroke-opacity:1"
         id="path168" /><path
         d="m 10860,2475.02 h -93"
         style="fill:none;stroke:#262626;stroke-width:5.0025;stroke-linecap:square;stroke-linejoin:round;stroke-miterlimit:10;stroke-dasharray:none;stroke-opacity:1"
         id="path170" /><path
         d="m 10860,2742.61 h -93"
         style="fill:none;stroke:#262626;stroke-width:5.0025;stroke-linecap:square;stroke-linejoin:round;stroke-miterlimit:10;stroke-dasharray:none;stroke-opacity:1"
         id="path172" /><path
         d="m 10860,3010.18 h -93"
         style="fill:none;stroke:#262626;stroke-width:5.0025;stroke-linecap:square;stroke-linejoin:round;stroke-miterlimit:10;stroke-dasharray:none;stroke-opacity:1"
         id="path174" /><path
         d="m 10860,3277.77 h -93"
         style="fill:none;stroke:#262626;stroke-width:5.0025;stroke-linecap:square;stroke-linejoin:round;stroke-miterlimit:10;stroke-dasharray:none;stroke-opacity:1"
         id="path176" /><g
         id="g178"
         transform="scale(10)"><text
           transform="matrix(1,0,0,-1,134.75,56.0707)"
           style="font-variant:normal;font-weight:normal;font-size:9.99975px;font-family:Helvetica;-inkscape-font-specification:Helvetica;writing-mode:lr-tb;fill:#262626;fill-opacity:1;fill-rule:nonzero;stroke:none"
           id="text202"><tspan
             x="0 5.5598612 11.119722"
             y="0"
             sodipodi:role="line"
             id="tspan180">240</tspan><tspan
             x="0 5.5598612 11.119722"
             y="-26.757799"
             sodipodi:role="line"
             id="tspan182">260</tspan><tspan
             x="0 5.5598612 11.119722"
             y="-53.515999"
             sodipodi:role="line"
             id="tspan184">280</tspan><tspan
             x="0 5.5598612 11.119722"
             y="-80.2742"
             sodipodi:role="line"
             id="tspan186">300</tspan><tspan
             x="0 5.5598612 11.119722"
             y="-107.0324"
             sodipodi:role="line"
             id="tspan188">320</tspan><tspan
             x="0 5.5598612 11.119722"
             y="-133.7906"
             sodipodi:role="line"
             id="tspan190">340</tspan><tspan
             x="0 5.5598612 11.119722"
             y="-160.5488"
             sodipodi:role="line"
             id="tspan192">360</tspan><tspan
             x="0 5.5598612 11.119722"
             y="-187.30701"
             sodipodi:role="line"
             id="tspan194">380</tspan><tspan
             x="0 5.5598612 11.119722"
             y="-214.0648"
             sodipodi:role="line"
             id="tspan196">400</tspan><tspan
             x="0 5.5598612 11.119722"
             y="-240.823"
             sodipodi:role="line"
             id="tspan198">420</tspan><tspan
             x="0 5.5598612 11.119722"
             y="-267.58121"
             sodipodi:role="line"
             id="tspan200">440</tspan></text><text
           transform="matrix(0,1,1,0,128.75,147.75)"
           style="font-variant:normal;font-weight:normal;font-size:11.0002px;font-family:Helvetica;-inkscape-font-specification:Helvetica;writing-mode:lr-tb;fill:#262626;fill-opacity:1;fill-rule:nonzero;stroke:none"
           id="text206"><tspan
             x="0 8.558156 14.674267 17.732323 23.848434 29.964544 33.022602 36.080654 43.417789 49.533901 51.975945 55.034 61.150112 67.26622 73.382332 76.440392 80.103455 89.266624 96.60376"
             y="0"
             sodipodi:role="line"
             id="tspan204">Output Voltage (mV)</tspan></text></g><path
         d="m 1998.53,561.816 c 0,8.289 -6.71,15 -15,15 -8.28,0 -15,-6.711 -15,-15 0,-8.285 6.72,-15 15,-15 8.29,0 15,6.715 15,15"
         style="fill:#000000;fill-opacity:1;fill-rule:nonzero;stroke:none"
         id="path208" /><path
         d="m 1983.53,574.32 c 6.9,0 12.51,-5.601 12.51,-12.504 v 0 c 0,-6.898 -5.61,-12.5 -12.51,-12.5 -6.9,0 -12.5,5.602 -12.5,12.5 0,6.903 5.6,12.504 12.5,12.504 z m 0,4.996 c -9.66,0 -17.49,-7.832 -17.49,-17.5 0,-9.664 7.83,-17.496 17.49,-17.496 9.67,0 17.5,7.832 17.5,17.496 v 0 c 0,9.668 -7.83,17.5 -17.5,17.5"
         style="fill:#000000;fill-opacity:1;fill-rule:nonzero;stroke:none"
         id="path210" /><path
         d="m 3593.43,1083.6 c 0,8.29 -6.72,15 -15,15 -8.29,0 -15,-6.71 -15,-15 0,-8.28 6.71,-15 15,-15 8.28,0 15,6.72 15,15"
         style="fill:#000000;fill-opacity:1;fill-rule:nonzero;stroke:none"
         id="path212" /><path
         d="m 3578.43,1096.11 c 6.9,0 12.5,-5.61 12.5,-12.51 v 0 c 0,-6.9 -5.6,-12.5 -12.5,-12.5 -6.9,0 -12.5,5.6 -12.5,12.5 0,6.9 5.6,12.51 12.5,12.51 z m 0,4.99 c -9.67,0 -17.5,-7.83 -17.5,-17.5 0,-9.67 7.83,-17.49 17.5,-17.49 9.66,0 17.5,7.82 17.5,17.49 v 0 c 0,9.67 -7.84,17.5 -17.5,17.5"
         style="fill:#000000;fill-opacity:1;fill-rule:nonzero;stroke:none"
         id="path214" /><path
         d="m 5081.99,1578.63 c 0,8.28 -6.71,15 -15,15 -8.28,0 -15,-6.72 -15,-15 0,-8.29 6.72,-15 15,-15 8.29,0 15,6.71 15,15"
         style="fill:#000000;fill-opacity:1;fill-rule:nonzero;stroke:none"
         id="path216" /><path
         d="m 5066.99,1591.13 c 6.9,0 12.51,-5.6 12.51,-12.5 v 0 c 0,-6.9 -5.61,-12.5 -12.51,-12.5 -6.9,0 -12.5,5.6 -12.5,12.5 0,6.9 5.6,12.5 12.5,12.5 z m 0,5 c -9.67,0 -17.49,-7.83 -17.49,-17.5 0,-9.67 7.82,-17.5 17.49,-17.5 9.67,0 17.5,7.83 17.5,17.5 v 0 c 0,9.67 -7.83,17.5 -17.5,17.5"
         style="fill:#000000;fill-opacity:1;fill-rule:nonzero;stroke:none"
         id="path218" /><path
         d="m 6464.23,2060.27 c 0,8.29 -6.71,15 -15,15 -8.28,0 -15,-6.71 -15,-15 0,-8.28 6.72,-15 15,-15 8.29,0 15,6.72 15,15"
         style="fill:#000000;fill-opacity:1;fill-rule:nonzero;stroke:none"
         id="path220" /><path
         d="m 6449.23,2072.78 c 6.9,0 12.51,-5.6 12.51,-12.51 v 0 c 0,-6.89 -5.61,-12.5 -12.51,-12.5 -6.89,0 -12.5,5.61 -12.5,12.5 0,6.91 5.61,12.51 12.5,12.51 z m 0,4.99 c -9.66,0 -17.49,-7.83 -17.49,-17.5 0,-9.66 7.83,-17.49 17.49,-17.49 9.67,0 17.5,7.83 17.5,17.49 v 0 c 0,9.67 -7.83,17.5 -17.5,17.5"
         style="fill:#000000;fill-opacity:1;fill-rule:nonzero;stroke:none"
         id="path222" /><path
         d="m 7828.75,2461.65 c 0,8.28 -6.71,15 -15,15 -8.28,0 -15,-6.72 -15,-15 0,-8.29 6.72,-15 15,-15 8.29,0 15,6.71 15,15"
         style="fill:#000000;fill-opacity:1;fill-rule:nonzero;stroke:none"
         id="path224" /><path
         d="m 7813.75,2474.15 c 6.91,0 12.51,-5.6 12.51,-12.5 v 0 c 0,-6.9 -5.6,-12.51 -12.51,-12.51 -6.89,0 -12.5,5.61 -12.5,12.51 0,6.9 5.61,12.5 12.5,12.5 z m 0,4.99 c -9.66,0 -17.49,-7.83 -17.49,-17.49 0,-9.67 7.83,-17.5 17.49,-17.5 9.67,0 17.5,7.83 17.5,17.5 v 0 c 0,9.66 -7.83,17.49 -17.5,17.49"
         style="fill:#000000;fill-opacity:1;fill-rule:nonzero;stroke:none"
         id="path226" /><path
         d="m 9211,2916.54 c 0,8.28 -6.72,15 -15,15 -8.29,0 -15,-6.72 -15,-15 0,-8.29 6.71,-15 15,-15 8.28,0 15,6.71 15,15"
         style="fill:#000000;fill-opacity:1;fill-rule:nonzero;stroke:none"
         id="path228" /><path
         d="m 9196,2929.04 c 6.89,0 12.5,-5.61 12.5,-12.5 v 0 c 0,-6.9 -5.61,-12.51 -12.5,-12.51 -6.91,0 -12.51,5.61 -12.51,12.51 0,6.89 5.6,12.5 12.51,12.5 z m 0,4.99 c -9.67,0 -17.5,-7.83 -17.5,-17.49 0,-9.67 7.83,-17.5 17.5,-17.5 9.66,0 17.49,7.83 17.49,17.5 v 0 c 0,9.66 -7.83,17.49 -17.49,17.49"
         style="fill:#000000;fill-opacity:1;fill-rule:nonzero;stroke:none"
         id="path230" /><path
         d="m 10451.5,3398.18 c 0,8.29 -6.7,15 -15,15 -8.3,0 -15,-6.71 -15,-15 0,-8.29 6.7,-15 15,-15 8.3,0 15,6.71 15,15"
         style="fill:#000000;fill-opacity:1;fill-rule:nonzero;stroke:none"
         id="path232" /><path
         d="m 10436.5,3410.68 c 6.9,0 12.5,-5.6 12.5,-12.5 v 0 c 0,-6.9 -5.6,-12.5 -12.5,-12.5 -6.9,0 -12.5,5.6 -12.5,12.5 0,6.9 5.6,12.5 12.5,12.5 z m 0,5 c -9.7,0 -17.5,-7.83 -17.5,-17.5 0,-9.66 7.8,-17.5 17.5,-17.5 9.6,0 17.5,7.84 17.5,17.5 v 0 c 0,9.67 -7.9,17.5 -17.5,17.5"
         style="fill:#000000;fill-opacity:1;fill-rule:nonzero;stroke:none"
         id="path234" /><path
         d="m 1560,431.648 31.85,10.231 31.85,10.23 31.85,10.235 31.84,10.238 31.86,10.238 31.84,10.246 31.86,10.243 31.85,10.246 31.84,10.246 31.86,10.25 31.84,10.254 31.85,10.261 31.85,10.25 9.49,3.063 22.36,7.199 31.85,10.266 31.85,10.261 31.85,10.266 31.85,10.277 31.85,10.266 31.85,10.277 31.85,10.274 31.85,10.281 31.84,10.277 31.86,10.282 31.84,10.289 31.85,10.293 31.85,10.289 31.85,10.289 31.85,10.297 31.85,10.297 31.85,10.3 31.85,10.297 31.85,10.305 31.85,10.305 31.85,10.312 31.85,10.313 31.84,10.312 31.85,10.313 31.85,10.32 31.85,10.32 31.85,10.321 31.85,10.324 31.85,10.328 31.85,10.328 31.85,10.336 31.85,10.328 31.85,10.34 31.85,10.336 31.84,10.344 31.86,10.343 31.84,10.34 31.85,10.352 31.86,10.347 31.84,10.352 31.85,10.359 31.85,10.356 31.85,10.36 31.85,10.36 31.85,10.37 31.85,10.36 31.85,10.37 31.85,10.37 31.84,10.37 11.92,3.89 19.94,6.49 31.84,10.38 31.85,10.38 31.86,10.38 31.84,10.38 31.86,10.39 31.84,10.4 31.85,10.38 31.85,10.4 31.85,10.39 31.85,10.4 31.85,10.4 31.85,10.41 31.84,10.4 31.86,10.41 31.84,10.41 31.86,10.41 31.85,10.42 31.84,10.42 31.86,10.42 31.84,10.41 31.85,10.43 31.85,10.42 31.85,10.43 31.85,10.44 31.85,10.43 31.85,10.43 31.85,10.44 31.85,10.44 31.84,10.44 31.86,10.45 31.85,10.45 31.84,10.45 31.86,10.45 31.84,10.46 31.85,10.45 31.85,10.46 31.85,10.46 31.85,10.46 31.85,10.47 31.85,10.46 31.85,10.47 31.85,10.48 31.85,10.47 31.85,10.48 31.85,10.48 31.84,10.48 3.57,1.18 28.28,9.31 31.85,10.48 31.85,10.48 31.85,10.5 31.85,10.49 31.85,10.5 31.85,10.5 31.85,10.5 31.85,10.5 31.85,10.51 31.85,10.5 31.84,10.51 31.86,10.51 31.84,10.52 31.85,10.51 31.86,10.52 31.84,10.52 31.85,10.53 31.85,10.52 31.85,10.53 31.85,10.53 31.85,10.53 31.85,10.54 31.85,10.53 31.85,10.54 31.84,10.55 31.86,10.54 31.84,10.55 31.85,10.54 31.86,10.55 31.84,10.56 31.86,10.55 31.84,10.56 31.85,10.56 31.85,10.56 31.85,10.57 31.85,10.57 31.85,10.56 31.85,10.58 31.84,10.57 31.86,10.58 31.84,10.57 31.86,10.59 16.28,5.41 15.57,5.17 31.84,10.59 31.86,10.58 31.84,10.59 31.85,10.6 31.85,10.59 31.85,10.59 31.85,10.61 31.85,10.6 31.85,10.6 31.85,10.61 31.85,10.61 31.84,10.61 31.86,10.61 31.85,10.62 31.84,10.62 31.86,10.62 31.84,10.62 31.85,10.63 31.85,10.62 31.85,10.63 31.85,10.64 31.85,10.62 31.85,10.65 31.85,10.63 31.85,10.64 31.85,10.64 31.85,10.65 31.85,10.65 31.84,10.65 31.85,10.65 31.85,10.65 31.85,10.66 31.85,10.66 31.85,10.66 31.85,10.67 31.85,10.67 31.85,10.66 31.85,10.67 31.85,10.67 31.85,10.68 31.85,10.68 31.85,10.68 11.28,3.78 20.56,6.91 31.85,10.68 31.86,10.68 31.84,10.7 31.85,10.69 31.85,10.69 31.85,10.69 31.85,10.71 31.85,10.7 31.85,10.7 31.85,10.71 31.85,10.71 31.85,10.7 31.85,10.72 31.84,10.71 31.85,10.72 31.86,10.72 31.84,10.72 31.86,10.72 31.84,10.73 31.85,10.73 31.85,10.73 31.85,10.73 31.85,10.74 31.85,10.73 31.85,10.75 31.84,10.73 31.86,10.75 31.84,10.75 31.86,10.75 31.85,10.75 31.84,10.76 31.86,10.75 31.84,10.76 31.85,10.76 31.85,10.76 31.85,10.77 31.85,10.76 31.85,10.77 31.85,10.78 31.85,10.77 31.85,10.78 31.85,10.79 24.01,8.12 7.84,2.65 31.85,10.79 31.84,10.78 31.86,10.79 31.84,10.8 31.85,10.79 31.85,10.79 31.85,10.8 31.85,10.8 31.85,10.8 31.85,10.81 31.85,10.81 31.85,10.81 31.85,10.81 31.85,10.81 31.85,10.82 31.84,10.81 31.86,10.83 31.84,10.82 31.85,10.82 31.85,10.83 31.85,10.83 31.85,10.83 31.85,10.84 31.85,10.84 31.88,10.83 31.8,10.85 31.9,10.84 31.8,10.85 31.9,10.85 31.8,10.85 31.9,10.85 31.8,10.86 31.9,10.85 31.8,10.87 31.9,10.86 31.8,10.86 31.9,10.87 31.8,10.87 22.4,7.63 9.5,3.24 31.8,10.87 31.9,10.88 31.8,10.88 31.9,10.89 31.8,10.88 31.9,10.88 31.8,10.89 31.9,10.89 31.8,10.89 31.8,10.9 31.9,10.9 31.8,10.89 31.9,10.91"
         style="fill:none;stroke:#565656;stroke-width:15;stroke-linecap:butt;stroke-linejoin:round;stroke-miterlimit:10;stroke-dasharray:none;stroke-opacity:1"
         id="path236" /><path
         d="m 9397.5,2295 h 757.5 v 277.5 h -757.5 z"
         style="fill:#ffffff;fill-opacity:1;fill-rule:nonzero;stroke:none"
         id="path238" /><g
         id="g240"
         transform="scale(10)"><text
           transform="matrix(1,0,0,-1,975.015,245.897)"
           style="font-variant:normal;font-weight:normal;font-size:9px;font-family:Helvetica;-inkscape-font-specification:Helvetica;writing-mode:lr-tb;fill:#000000;fill-opacity:1;fill-rule:nonzero;stroke:none"
           id="text244"><tspan
             x="0 4.5 7.0019999 11.502 16.002001 18.504 21.006001"
             y="0"
             sodipodi:role="line"
             id="tspan242">y vs. x</tspan></text></g><path
         d="m 9593.64,2496.47 c 0,8.29 -6.71,15 -15,15 -8.28,0 -15,-6.71 -15,-15 0,-8.29 6.72,-15 15,-15 8.29,0 15,6.71 15,15"
         style="fill:#000000;fill-opacity:1;fill-rule:nonzero;stroke:none"
         id="path246" /><path
         d="m 9578.64,2508.98 c 6.9,0 12.5,-5.61 12.5,-12.51 v 0 c 0,-6.9 -5.6,-12.5 -12.5,-12.5 -6.9,0 -12.5,5.6 -12.5,12.5 0,6.9 5.6,12.51 12.5,12.51 z m 0,4.99 c -9.66,0 -17.5,-7.83 -17.5,-17.5 0,-9.67 7.84,-17.49 17.5,-17.49 9.67,0 17.5,7.82 17.5,17.49 v 0 c 0,9.67 -7.83,17.5 -17.5,17.5"
         style="fill:#000000;fill-opacity:1;fill-rule:nonzero;stroke:none"
         id="path248" /><g
         id="g250"
         transform="scale(10)"><text
           transform="matrix(1,0,0,-1,975.015,233.353)"
           style="font-variant:normal;font-weight:normal;font-size:9px;font-family:Helvetica;-inkscape-font-specification:Helvetica;writing-mode:lr-tb;fill:#000000;fill-opacity:1;fill-rule:nonzero;stroke:none"
           id="text254"><tspan
             x="0 4.5 9.5039997 14.508 19.511999 22.509001 27.513 30.014999 32.516998 34.514999"
             y="0"
             sodipodi:role="line"
             id="tspan252">square fit</tspan></text></g><path
         d="m 9429.5,2371.03 h 298.28"
         style="fill:none;stroke:#565656;stroke-width:15;stroke-linecap:butt;stroke-linejoin:round;stroke-miterlimit:10;stroke-dasharray:none;stroke-opacity:1"
         id="path256" /><path
         d="m 9397.5,2295 h 757.5 v 277.5 h -757.5 z"
         style="fill:none;stroke:#262626;stroke-width:5.0025;stroke-linecap:butt;stroke-linejoin:miter;stroke-miterlimit:10;stroke-dasharray:none;stroke-opacity:1"
         id="path258" /></g></g></svg>
